<svg width="1920" height="1080" viewBox="0 0 1920 1080" fill="none" xmlns="http://www.w3.org/2000/svg">
<path d="M117.177 452.398C122.924 451.833 133.948 451.737 139.991 451.728C140.1 451.727 140.21 451.727 140.32 451.726C141.757 451.723 143.099 451.71 144.71 451.696C148.492 451.666 153.609 451.619 164.3 451.757C167.394 451.73 170.525 451.709 173.621 451.692C173.852 451.691 174.083 451.69 174.315 451.688C192.775 451.556 210.712 454.829 228.378 457.057C243.319 458.865 258.741 459.8 274.042 461.111C274.465 461.139 274.897 461.167 275.335 461.196C283.747 461.741 294.178 462.475 300.709 463.181C307.119 463.869 311.917 464.454 315.911 464.966C317.127 465.121 318.199 465.261 319.279 465.399C335.477 467.107 351.657 468.762 367.84 469.542C378.036 469.994 388.398 470.134 398.685 470.173C404.114 470.188 409.562 470.161 414.994 470.094C416.91 470.07 418.818 470.041 420.747 470.007C421.715 469.99 422.668 469.961 423.614 469.92C431.09 469.598 438.512 468.483 445.678 466.491C449.844 465.249 453.687 463.766 457.189 462.211C462.105 460.027 466.331 457.722 469.822 455.781C475.461 452.652 481.545 448.955 487.193 445.641C489.768 444.135 492.136 442.453 494.199 440.849C495.221 440.054 496.173 439.272 497.038 438.535C501.751 434.305 506.096 429.569 509.908 424.525C510.196 424.209 510.483 423.894 510.771 423.572C512.326 421.828 513.89 419.799 515.415 417.292C516.789 415.201 516.862 411.731 516.16 406.667C516.108 406.191 515.975 405.71 515.739 405.208C514.931 403.427 512.685 401.513 509.769 399.934C508.423 399.186 506.624 398.784 504.536 398.743C501.365 398.722 499.34 399.044 497.784 399.185C497.575 399.205 497.379 399.228 497.189 399.255C496.771 399.316 496.382 399.395 495.993 399.507C494.662 399.89 493.418 400.762 492.221 402.075C490.663 403.789 489.159 406.242 487.36 409.845C484.605 415.546 483.558 420.323 482.735 423.913C482.1 427.226 482.557 429.884 482.927 431.983C483.162 433.207 483.431 434.304 483.72 435.407C483.851 435.903 483.994 436.425 484.154 436.957C484.943 439.963 487.54 443.093 490.354 445.106C491.87 446.272 494.675 447.753 497.831 449.118C499.704 449.945 501.752 450.517 503.617 450.849C505.406 451.173 507.869 451.532 510.841 451.598C513.91 451.674 517.525 451.431 521.354 450.778C531.037 449.009 536.062 447.112 540.108 445.807C541.259 445.415 542.329 445.04 543.396 444.656C545.327 443.961 547.52 443.147 549.83 442.256C551.626 441.563 553.539 440.905 555.506 440.354C561.024 438.768 566.844 438.266 571.173 438.185C577.456 438.183 583.605 438.826 589.712 439.675L590.42 439.884C595.018 442.296 598.845 445.456 602.524 448.7C604.309 450.289 605.984 451.914 607.529 453.47C609.676 455.632 611.563 457.649 613.149 459.294C615.884 462.128 617.403 463.797 617.166 464.091C616.931 464.365 614.965 463.269 611.748 460.883C609.879 459.492 607.738 457.691 605.436 455.736C603.776 454.324 602.039 452.839 600.247 451.363C596.574 448.354 592.731 445.473 588.632 443.533L589.23 443.709C582.834 443.072 576.459 442.677 570.167 443.007C563.748 443.32 557.588 444.63 551.7 447.083C545.009 449.792 538.177 452.283 531.091 454.17C521.602 456.619 511.441 458.408 501.087 455.996C500.035 455.739 498.984 455.43 497.946 455.065C497.133 454.8 496.323 454.499 495.53 454.164C488.809 451.549 481.113 447.072 478.619 440.694C478.336 440.045 478.104 439.404 477.912 438.769C476.688 434.585 476.46 431.374 476.458 428.472C476.48 426.444 476.644 424.587 477.076 422.618C477.118 422.429 477.16 422.239 477.202 422.049C477.412 421.085 477.698 419.765 478.081 418.164C479.961 412.312 481.477 398.012 495.272 393.286C495.691 393.174 496.118 393.077 496.558 392.996C500.901 392.281 506.584 391.326 512.25 394.085C512.424 394.175 512.597 394.268 512.769 394.366C517.044 396.778 521.681 400.739 522.173 405.971C522.345 407.629 522.532 409.188 522.634 410.396C522.892 413.28 522.804 417.005 520.861 420.395C519.046 423.561 516.928 426.492 514.846 429.117C511.19 433.721 507.603 437.359 505.648 439.528C503.303 442.111 501.067 444.103 497.514 446.79C495.696 448.146 493.535 449.682 490.673 451.38C489.686 451.961 488.629 452.591 487.493 453.276C482.592 456.232 479.012 458.223 475.929 459.844C471.58 462.118 468.266 463.764 463.321 466.282C457.82 469.081 451.714 471.402 446.741 472.635C444.47 473.209 441.892 473.823 439.163 474.346C435.558 475.041 431.725 475.555 428.213 475.75C425.329 475.911 422.971 475.813 420.852 475.685C420.837 475.684 420.821 475.683 420.805 475.682C420.154 475.641 419.533 475.602 418.936 475.567C417.655 475.591 416.362 475.613 415.073 475.634C414.103 475.65 413.161 475.664 412.187 475.678C411.822 475.714 411.44 475.752 411.044 475.792C409.031 475.992 406.58 476.232 403.525 476.357C398.673 476.553 394.448 476.443 389.962 476.302C386.496 476.191 382.846 476.062 378.691 476.021C375.873 475.992 372.615 475.998 369.412 475.965C368.783 475.958 368.181 475.95 367.572 475.938C363.459 475.859 359.513 475.722 356.671 475.481C355.438 475.378 354.412 475.191 353.374 475.003C353.369 475.002 353.365 475.001 353.36 475C353.289 474.987 353.216 474.974 353.147 474.962C345.204 474.508 337.293 473.92 329.383 473.283C328.701 473.249 327.984 473.211 327.312 473.176C323.956 472.999 320.671 472.811 318.544 472.792C317.741 472.783 316.628 472.731 315.158 472.635C312.308 472.452 308.411 472.146 304.371 471.846C300.39 471.549 296.267 471.257 292.903 471.07C290.943 470.961 289.08 470.681 287.179 470.398C285.396 470.133 283.566 469.864 281.564 469.723C280.558 469.652 279.458 469.606 278.305 469.56C277.277 469.519 276.188 469.475 275.067 469.41C274.003 469.348 271.672 469.094 268.682 468.772C266.824 468.572 264.728 468.348 262.515 468.123C256.674 467.714 250.792 467.297 244.93 466.825C243.69 466.806 242.628 466.828 241.767 466.902C241.156 466.955 240.637 467.038 240.087 467.12C239.344 467.232 238.601 467.348 237.545 467.39C236.738 467.424 235.773 467.367 235.143 467.249C234.85 467.193 234.632 467.126 234.43 467.064C234.192 466.993 233.982 466.93 233.721 466.901C233.534 466.881 233.336 466.89 233.095 466.9C232.717 466.917 232.201 466.935 231.443 466.846C230.109 466.689 228.635 466.496 227.171 466.281C225.58 466.048 223.967 465.8 222.356 465.549C218.935 465.015 215.587 464.474 212.933 464.09C209.952 463.658 205.744 462.894 201.541 462.19C198.61 461.698 195.677 461.24 193.161 460.917C190.694 460.599 188.12 460.393 185.631 460.24C182.643 460.054 179.775 459.947 177.34 459.764C176.85 459.727 176.236 459.596 175.471 459.44C175.106 459.365 174.703 459.285 174.258 459.206C174.036 459.168 173.805 459.13 173.565 459.092C170.398 459.032 167.196 458.967 164.03 458.9C163.917 458.912 163.801 458.924 163.684 458.936C163.683 458.937 163.681 458.937 163.679 458.937C161.084 459.221 157.49 459.584 152.482 459.221C151.191 459.13 150.412 458.994 149.683 458.872C148.965 458.752 148.329 458.647 147.412 458.611C146.337 458.57 145.126 458.614 143.745 458.661C141.857 458.727 139.704 458.798 137.579 458.668C137.435 458.659 137.282 458.649 137.114 458.639C135.548 458.547 133.285 458.413 130.994 458.19C124.293 458.125 117.226 457.853 111.064 458.386C110.985 458.397 110.918 458.408 110.866 458.417C101.005 460.086 91.7026 461.596 83.7248 467.01C82.5708 467.756 81.4315 468.519 80.307 469.302C75.857 472.387 71.7325 475.585 68.8184 478.078C65.8721 480.558 64.4483 482.159 64.156 482.004C63.7992 481.824 64.7623 479.63 67.3382 476.607C69.889 473.564 73.8115 469.849 78.2533 466.477C79.3758 465.622 80.5135 464.786 81.6667 463.968C88.0312 459.324 95.8168 456.533 103.318 454.99C103.782 454.88 104.245 454.773 104.705 454.667C106.485 454.258 108.168 453.854 109.775 453.407C111.814 452.938 113.276 452.826 114.892 452.631C115.647 452.547 116.396 452.471 117.177 452.398Z" fill="#BDB7E9"/>
<path d="M117.177 452.398C122.924 451.833 133.948 451.737 139.991 451.728C140.1 451.727 140.21 451.727 140.32 451.726C141.757 451.723 143.099 451.71 144.71 451.696C148.492 451.666 153.609 451.619 164.3 451.757C167.394 451.73 170.525 451.709 173.621 451.692C173.852 451.691 174.083 451.69 174.315 451.688C192.775 451.556 210.712 454.829 228.378 457.057C243.319 458.865 258.741 459.8 274.042 461.111C274.465 461.139 274.897 461.167 275.335 461.196C283.747 461.741 294.178 462.475 300.709 463.181C307.119 463.869 311.917 464.454 315.911 464.966C317.127 465.121 318.199 465.261 319.279 465.399C335.477 467.107 351.657 468.762 367.84 469.542C378.036 469.994 388.398 470.134 398.685 470.173C404.114 470.188 409.562 470.161 414.994 470.094C416.91 470.07 418.818 470.041 420.747 470.007C421.715 469.99 422.668 469.961 423.614 469.92C431.09 469.598 438.512 468.483 445.678 466.491C449.844 465.249 453.687 463.766 457.189 462.211C462.105 460.027 466.331 457.722 469.822 455.781C475.461 452.652 481.545 448.955 487.193 445.641C489.768 444.135 492.136 442.453 494.199 440.849C495.221 440.054 496.173 439.272 497.038 438.535C501.751 434.305 506.096 429.569 509.908 424.525C510.196 424.209 510.483 423.894 510.771 423.572C512.326 421.828 513.89 419.799 515.415 417.292C516.789 415.201 516.862 411.731 516.16 406.667C516.108 406.191 515.975 405.71 515.739 405.208C514.931 403.427 512.685 401.513 509.769 399.934C508.423 399.186 506.624 398.784 504.536 398.743C501.365 398.722 499.34 399.044 497.784 399.185C497.575 399.205 497.379 399.228 497.189 399.255C496.771 399.316 496.382 399.395 495.993 399.507C494.662 399.89 493.418 400.762 492.221 402.075C490.663 403.789 489.159 406.242 487.36 409.845C484.605 415.546 483.558 420.323 482.735 423.913C482.1 427.226 482.557 429.884 482.927 431.983C483.162 433.207 483.431 434.304 483.72 435.407C483.851 435.903 483.994 436.425 484.154 436.957C484.943 439.963 487.54 443.093 490.354 445.106C491.87 446.272 494.675 447.753 497.831 449.118C499.704 449.945 501.752 450.517 503.617 450.849C505.406 451.173 507.869 451.532 510.841 451.598C513.91 451.674 517.525 451.431 521.354 450.778C531.037 449.009 536.062 447.112 540.108 445.807C541.259 445.415 542.329 445.04 543.396 444.656C545.327 443.961 547.52 443.147 549.83 442.256C551.626 441.563 553.539 440.905 555.506 440.354C561.024 438.768 566.844 438.266 571.173 438.185C577.456 438.183 583.605 438.826 589.712 439.675L590.42 439.884C595.018 442.296 598.845 445.456 602.524 448.7C604.309 450.289 605.984 451.914 607.529 453.47C609.676 455.632 611.563 457.649 613.149 459.294C615.884 462.128 617.403 463.797 617.166 464.091C616.931 464.365 614.965 463.269 611.748 460.883C609.879 459.492 607.738 457.691 605.436 455.736C603.776 454.324 602.039 452.839 600.247 451.363C596.574 448.354 592.731 445.473 588.632 443.533L589.23 443.709C582.834 443.072 576.459 442.677 570.167 443.007C563.748 443.32 557.588 444.63 551.7 447.083C545.009 449.792 538.177 452.283 531.091 454.17C521.602 456.619 511.441 458.408 501.087 455.996C500.035 455.739 498.984 455.43 497.946 455.065C497.133 454.8 496.323 454.499 495.53 454.164C488.809 451.549 481.113 447.072 478.619 440.694C478.336 440.045 478.104 439.404 477.912 438.769C476.688 434.585 476.46 431.374 476.458 428.472C476.48 426.444 476.644 424.587 477.076 422.618C477.118 422.429 477.16 422.239 477.202 422.049C477.412 421.085 477.698 419.765 478.081 418.164C479.961 412.312 481.477 398.012 495.272 393.286C495.691 393.174 496.118 393.077 496.558 392.996C500.901 392.281 506.584 391.326 512.25 394.085C512.424 394.175 512.597 394.268 512.769 394.366C517.044 396.778 521.681 400.739 522.173 405.971C522.345 407.629 522.532 409.188 522.634 410.396C522.892 413.28 522.804 417.005 520.861 420.395C519.046 423.561 516.928 426.492 514.846 429.117C511.19 433.721 507.603 437.359 505.648 439.528C503.303 442.111 501.067 444.103 497.514 446.79C495.696 448.146 493.535 449.682 490.673 451.38C489.686 451.961 488.629 452.591 487.493 453.276C482.592 456.232 479.012 458.223 475.929 459.844C471.58 462.118 468.266 463.764 463.321 466.282C457.82 469.081 451.714 471.402 446.741 472.635C444.47 473.209 441.892 473.823 439.163 474.346C435.558 475.041 431.725 475.555 428.213 475.75C425.329 475.911 422.971 475.813 420.852 475.685C420.837 475.684 420.821 475.683 420.805 475.682C420.154 475.641 419.533 475.602 418.936 475.567C417.655 475.591 416.362 475.613 415.073 475.634C414.103 475.65 413.161 475.664 412.187 475.678C411.822 475.714 411.44 475.752 411.044 475.792C409.031 475.992 406.58 476.232 403.525 476.357C398.673 476.553 394.448 476.443 389.962 476.302C386.496 476.191 382.846 476.062 378.691 476.021C375.873 475.992 372.615 475.998 369.412 475.965C368.783 475.958 368.181 475.95 367.572 475.938C363.459 475.859 359.513 475.722 356.671 475.481C355.438 475.378 354.412 475.191 353.374 475.003C353.369 475.002 353.365 475.001 353.36 475C353.289 474.987 353.216 474.974 353.147 474.962C345.204 474.508 337.293 473.92 329.383 473.283C328.701 473.249 327.984 473.211 327.312 473.176C323.956 472.999 320.671 472.811 318.544 472.792C317.741 472.783 316.628 472.731 315.158 472.635C312.308 472.452 308.411 472.146 304.371 471.846C300.39 471.549 296.267 471.257 292.903 471.07C290.943 470.961 289.08 470.681 287.179 470.398C285.396 470.133 283.566 469.864 281.564 469.723C280.558 469.652 279.458 469.606 278.305 469.56C277.277 469.519 276.188 469.475 275.067 469.41C274.003 469.348 271.672 469.094 268.682 468.772C266.824 468.572 264.728 468.348 262.515 468.123C256.674 467.714 250.792 467.297 244.93 466.825C243.69 466.806 242.628 466.828 241.767 466.902C241.156 466.955 240.637 467.038 240.087 467.12C239.344 467.232 238.601 467.348 237.545 467.39C236.738 467.424 235.773 467.367 235.143 467.249C234.85 467.193 234.632 467.126 234.43 467.064C234.192 466.993 233.982 466.93 233.721 466.901C233.534 466.881 233.336 466.89 233.095 466.9C232.717 466.917 232.201 466.935 231.443 466.846C230.109 466.689 228.635 466.496 227.171 466.281C225.58 466.048 223.967 465.8 222.356 465.549C218.935 465.015 215.587 464.474 212.933 464.09C209.952 463.658 205.744 462.894 201.541 462.19C198.61 461.698 195.677 461.24 193.161 460.917C190.694 460.599 188.12 460.393 185.631 460.24C182.643 460.054 179.775 459.947 177.34 459.764C176.85 459.727 176.236 459.596 175.471 459.44C175.106 459.365 174.703 459.285 174.258 459.206C174.036 459.168 173.805 459.13 173.565 459.092C170.398 459.032 167.196 458.967 164.03 458.9C163.917 458.912 163.801 458.924 163.684 458.936C163.683 458.937 163.681 458.937 163.679 458.937C161.084 459.221 157.49 459.584 152.482 459.221C151.191 459.13 150.412 458.994 149.683 458.872C148.965 458.752 148.329 458.647 147.412 458.611C146.337 458.57 145.126 458.614 143.745 458.661C141.857 458.727 139.704 458.798 137.579 458.668C137.435 458.659 137.282 458.649 137.114 458.639C135.548 458.547 133.285 458.413 130.994 458.19C124.293 458.125 117.226 457.853 111.064 458.386C110.985 458.397 110.918 458.408 110.866 458.417C101.005 460.086 91.7026 461.596 83.7248 467.01C82.5708 467.756 81.4315 468.519 80.307 469.302C75.857 472.387 71.7325 475.585 68.8184 478.078C65.8721 480.558 64.4483 482.159 64.156 482.004C63.7992 481.824 64.7623 479.63 67.3382 476.607C69.889 473.564 73.8115 469.849 78.2533 466.477C79.3758 465.622 80.5135 464.786 81.6667 463.968C88.0312 459.324 95.8168 456.533 103.318 454.99C103.782 454.88 104.245 454.773 104.705 454.667C106.485 454.258 108.168 453.854 109.775 453.407C111.814 452.938 113.276 452.826 114.892 452.631C115.647 452.547 116.396 452.471 117.177 452.398Z" fill="url(#paint0_linear_287_7214)"/>
<rect x="93" y="689" width="496" height="104" rx="52" stroke="#BDB7E9" stroke-width="8"/>
<rect x="93" y="689" width="496" height="104" rx="52" stroke="url(#paint1_linear_287_7214)" stroke-width="8"/>
<circle cx="163" cy="741" r="16" fill="#BDB7E9"/>
<path d="M1286.85 417.832C1298.57 424.025 1309.23 432.365 1317.34 442.155C1326.75 453.525 1331.6 468.166 1332.34 485.361C1332.55 508.274 1329.3 517.667 1323.63 532.785C1320.26 542.071 1309.16 547.483 1298.53 548.844C1297.13 549.069 1295.68 549.177 1294.22 549.164C1276.22 547.838 1266.15 535.899 1257.92 525.952C1250.25 511.303 1252.72 502.557 1251.87 493.379C1251.71 484.561 1251.83 477.274 1251.55 472.027C1250.92 459.242 1253.51 455.503 1255.14 443.684C1255.66 439.975 1256.42 435.598 1257.82 430.233C1261.78 415.909 1268.14 406.674 1273.96 398.039C1278.12 391.998 1282.74 386.272 1288.54 380.27C1297.03 371.314 1317.42 351.256 1342.08 343.084C1358.47 338.193 1373.76 337.803 1382.82 336.521C1396.81 334.862 1412.07 336.084 1425.4 340.367L1427.08 341.251C1432.87 347.267 1437.79 353.189 1441.32 358.215C1441.56 358.542 1441.78 358.867 1441.99 359.186L1442.07 359.289C1444.4 363.242 1445.17 366.741 1445.71 369.381C1445.94 370.612 1445.73 371.28 1445.34 371.414C1445.34 371.414 1445.34 371.414 1445.34 371.414C1445.34 371.414 1445.34 371.414 1445.34 371.414C1445.34 371.414 1445.34 371.414 1445.34 371.414C1444.86 371.573 1444.12 370.907 1443.53 369.474C1442.48 366.974 1441.15 364.084 1438.98 361.395L1439.04 361.478C1434.86 356.783 1428.89 352.019 1421.84 347.24L1423.44 348.081C1423.39 348.076 1423.35 348.072 1423.31 348.067C1399.47 347.187 1396.24 343.358 1363.26 346.993C1356.36 348.042 1350.08 349.473 1344.84 351.518C1325.07 360.244 1310.57 372.437 1290.91 395.31C1288.27 398.495 1286.03 401.572 1284.06 404.559C1274.2 419.55 1269.68 430.277 1268.53 444.922C1267.88 456.471 1266.43 470.468 1265.08 490.397C1264.29 502.528 1265.08 514.512 1267.64 518.386C1276.78 529.935 1288.33 536.877 1296.48 534.808C1302.79 533.482 1308.28 530.754 1308.89 527.238C1310.49 522.35 1311.81 516.308 1312.72 509.302C1315.07 490.367 1314.42 466.642 1304.51 451.403C1297.83 441.343 1290.48 434.768 1280.45 429.593C1265.62 420.581 1255.47 415.067 1244.83 416.222C1243.96 416.287 1243.12 416.352 1242.3 416.418C1237.83 416.777 1233.74 417.175 1230.13 417.619C1212.63 419.977 1191.47 422.676 1177.61 438.473C1161.88 451.589 1154.12 461.771 1151.05 480.881C1150.56 483.618 1150.08 486.362 1149.63 489.115C1146.23 511.181 1143.3 539.551 1156.37 557.727C1164.09 568.492 1171.52 577.029 1180.91 578.28C1185.14 578.944 1189.34 579.452 1193.3 579.61C1195.26 579.687 1197.17 579.669 1198.82 579.507C1200.41 579.39 1201.95 578.881 1201.81 578.909C1201.3 579.223 1201.12 579.424 1201.04 579.51C1200.96 579.602 1200.97 579.598 1201.01 579.546C1201.1 579.436 1201.29 579.139 1201.48 578.772C1201.87 578.029 1202.28 577.002 1202.63 575.924C1203.32 573.736 1203.82 571.273 1204.14 568.738C1204.97 562.342 1204.72 555.081 1203.54 547.665C1199.82 528.254 1199.49 503.418 1184.47 495.848C1159.78 483.514 1130.96 481.73 1116.22 488.385C1115.91 488.513 1115.58 488.651 1115.26 488.796C1094.59 500.088 1086.31 510.604 1081.92 525.806C1080.68 531.739 1079.96 538.786 1079.43 547.572C1078.3 566.538 1077.04 592.788 1074.42 614.99C1073.12 626.208 1071.47 623.654 1070.91 612.318C1070.13 595.777 1071.42 582.243 1069.95 573.624C1067.25 556.357 1065.86 548.994 1071.67 527.086C1072 525.963 1072.36 524.755 1072.69 523.686C1080.59 502.809 1086.83 494.022 1097.01 485.707C1101.75 482.406 1104.64 480.909 1111.54 478.118C1120.9 475.038 1138.91 468.251 1176.84 478.809C1181.57 480.246 1186.07 481.837 1190.56 484.017C1205.67 491.209 1210.43 506.798 1213.08 516.77C1215.8 527.453 1217.32 536.604 1218.95 544.873C1220.67 553.823 1221.16 562.127 1220.49 569.816C1220.15 573.666 1219.53 577.343 1218.44 581.001C1217.88 582.834 1217.22 584.66 1216.25 586.566C1215.1 588.517 1214.51 590.498 1210.47 593.27C1207.41 595.062 1205.05 595.524 1202.94 595.938C1195.03 597.222 1187.11 596.221 1178.22 594.656C1162.61 592.325 1151.27 577.88 1144.06 566.858C1131.87 549.131 1132.14 528.34 1132.63 511.492C1133.02 502.099 1134.42 490.634 1136.52 478.401C1138.1 469.266 1140.66 459.298 1146.36 449.952C1151.82 440.425 1161.72 433.671 1166.85 428.353C1186.7 406.556 1214.86 405.454 1228.26 402.936C1233.18 402.225 1237.33 401.757 1240.96 401.411C1241.84 401.328 1242.7 401.251 1243.53 401.181C1264.83 400.536 1269.82 407.612 1286.48 417.628C1286.6 417.695 1286.73 417.764 1286.85 417.832Z" fill="#BDB7E9"/>
<path d="M1286.85 417.832C1298.57 424.025 1309.23 432.365 1317.34 442.155C1326.75 453.525 1331.6 468.166 1332.34 485.361C1332.55 508.274 1329.3 517.667 1323.63 532.785C1320.26 542.071 1309.16 547.483 1298.53 548.844C1297.13 549.069 1295.68 549.177 1294.22 549.164C1276.22 547.838 1266.15 535.899 1257.92 525.952C1250.25 511.303 1252.72 502.557 1251.87 493.379C1251.71 484.561 1251.83 477.274 1251.55 472.027C1250.92 459.242 1253.51 455.503 1255.14 443.684C1255.66 439.975 1256.42 435.598 1257.82 430.233C1261.78 415.909 1268.14 406.674 1273.96 398.039C1278.12 391.998 1282.74 386.272 1288.54 380.27C1297.03 371.314 1317.42 351.256 1342.08 343.084C1358.47 338.193 1373.76 337.803 1382.82 336.521C1396.81 334.862 1412.07 336.084 1425.4 340.367L1427.08 341.251C1432.87 347.267 1437.79 353.189 1441.32 358.215C1441.56 358.542 1441.78 358.867 1441.99 359.186L1442.07 359.289C1444.4 363.242 1445.17 366.741 1445.71 369.381C1445.94 370.612 1445.73 371.28 1445.34 371.414C1445.34 371.414 1445.34 371.414 1445.34 371.414C1445.34 371.414 1445.34 371.414 1445.34 371.414C1445.34 371.414 1445.34 371.414 1445.34 371.414C1444.86 371.573 1444.12 370.907 1443.53 369.474C1442.48 366.974 1441.15 364.084 1438.98 361.395L1439.04 361.478C1434.86 356.783 1428.89 352.019 1421.84 347.24L1423.44 348.081C1423.39 348.076 1423.35 348.072 1423.31 348.067C1399.47 347.187 1396.24 343.358 1363.26 346.993C1356.36 348.042 1350.08 349.473 1344.84 351.518C1325.07 360.244 1310.57 372.437 1290.91 395.31C1288.27 398.495 1286.03 401.572 1284.06 404.559C1274.2 419.55 1269.68 430.277 1268.53 444.922C1267.88 456.471 1266.43 470.468 1265.08 490.397C1264.29 502.528 1265.08 514.512 1267.64 518.386C1276.78 529.935 1288.33 536.877 1296.48 534.808C1302.79 533.482 1308.28 530.754 1308.89 527.238C1310.49 522.35 1311.81 516.308 1312.72 509.302C1315.07 490.367 1314.42 466.642 1304.51 451.403C1297.83 441.343 1290.48 434.768 1280.45 429.593C1265.62 420.581 1255.47 415.067 1244.83 416.222C1243.96 416.287 1243.12 416.352 1242.3 416.418C1237.83 416.777 1233.74 417.175 1230.13 417.619C1212.63 419.977 1191.47 422.676 1177.61 438.473C1161.88 451.589 1154.12 461.771 1151.05 480.881C1150.56 483.618 1150.08 486.362 1149.63 489.115C1146.23 511.181 1143.3 539.551 1156.37 557.727C1164.09 568.492 1171.52 577.029 1180.91 578.28C1185.14 578.944 1189.34 579.452 1193.3 579.61C1195.26 579.687 1197.17 579.669 1198.82 579.507C1200.41 579.39 1201.95 578.881 1201.81 578.909C1201.3 579.223 1201.12 579.424 1201.04 579.51C1200.96 579.602 1200.97 579.598 1201.01 579.546C1201.1 579.436 1201.29 579.139 1201.48 578.772C1201.87 578.029 1202.28 577.002 1202.63 575.924C1203.32 573.736 1203.82 571.273 1204.14 568.738C1204.97 562.342 1204.72 555.081 1203.54 547.665C1199.82 528.254 1199.49 503.418 1184.47 495.848C1159.78 483.514 1130.96 481.73 1116.22 488.385C1115.91 488.513 1115.58 488.651 1115.26 488.796C1094.59 500.088 1086.31 510.604 1081.92 525.806C1080.68 531.739 1079.96 538.786 1079.43 547.572C1078.3 566.538 1077.04 592.788 1074.42 614.99C1073.12 626.208 1071.47 623.654 1070.91 612.318C1070.13 595.777 1071.42 582.243 1069.95 573.624C1067.25 556.357 1065.86 548.994 1071.67 527.086C1072 525.963 1072.36 524.755 1072.69 523.686C1080.59 502.809 1086.83 494.022 1097.01 485.707C1101.75 482.406 1104.64 480.909 1111.54 478.118C1120.9 475.038 1138.91 468.251 1176.84 478.809C1181.57 480.246 1186.07 481.837 1190.56 484.017C1205.67 491.209 1210.43 506.798 1213.08 516.77C1215.8 527.453 1217.32 536.604 1218.95 544.873C1220.67 553.823 1221.16 562.127 1220.49 569.816C1220.15 573.666 1219.53 577.343 1218.44 581.001C1217.88 582.834 1217.22 584.66 1216.25 586.566C1215.1 588.517 1214.51 590.498 1210.47 593.27C1207.41 595.062 1205.05 595.524 1202.94 595.938C1195.03 597.222 1187.11 596.221 1178.22 594.656C1162.61 592.325 1151.27 577.88 1144.06 566.858C1131.87 549.131 1132.14 528.34 1132.63 511.492C1133.02 502.099 1134.42 490.634 1136.52 478.401C1138.1 469.266 1140.66 459.298 1146.36 449.952C1151.82 440.425 1161.72 433.671 1166.85 428.353C1186.7 406.556 1214.86 405.454 1228.26 402.936C1233.18 402.225 1237.33 401.757 1240.96 401.411C1241.84 401.328 1242.7 401.251 1243.53 401.181C1264.83 400.536 1269.82 407.612 1286.48 417.628C1286.6 417.695 1286.73 417.764 1286.85 417.832Z" fill="url(#paint2_linear_287_7214)"/>
<defs>
<linearGradient id="paint0_linear_287_7214" x1="5" y1="547.5" x2="617" y2="482" gradientUnits="userSpaceOnUse">
<stop offset="0.0384615" stop-color="#410D6E"/>
<stop offset="0.306223" stop-color="#6825A2"/>
<stop offset="0.506089" stop-color="#8552B2"/>
<stop offset="0.826288" stop-color="#BDB7E9"/>
</linearGradient>
<linearGradient id="paint1_linear_287_7214" x1="104.201" y1="688.485" x2="330.231" y2="995.716" gradientUnits="userSpaceOnUse">
<stop offset="0.0336539" stop-color="#6825A2"/>
<stop offset="0.416926" stop-color="#8552B2"/>
<stop offset="0.728176" stop-color="#BDB7E9"/>
</linearGradient>
<linearGradient id="paint2_linear_287_7214" x1="1084.23" y1="349.75" x2="1494.22" y2="513.756" gradientUnits="userSpaceOnUse">
<stop offset="0.0336539" stop-color="#6825A2"/>
<stop offset="0.416926" stop-color="#8552B2"/>
<stop offset="0.728176" stop-color="#BDB7E9"/>
</linearGradient>
</defs>
</svg>
