<svg width="1920" height="1080" viewBox="0 0 1920 1080" fill="none" xmlns="http://www.w3.org/2000/svg">
<g clip-path="url(#clip0_287_7210)">
<path d="M296.351 34.4413C298.053 31.1995 299.586 27.8339 301.599 23.8601C306.009 15.1351 310.424 4.00937 310.595 -6.16435C310.573 -5.42 310.87 -4.38196 311.282 -3.76046C311.688 -3.12045 312.053 -2.85184 312.2 -2.74018C312.511 -2.53653 312.209 -2.73254 311.763 -2.85019C310.829 -3.12901 309.33 -3.37021 307.783 -3.52447C304.637 -3.83919 301.101 -3.91638 297.456 -3.97822C275.91 1.03917 247.424 23.52 223.791 41.8016C216.51 48.238 207.962 58.383 199.761 66.2424C178.032 88.1013 156.838 108.32 139.223 124.064C138.2 124.982 137.174 125.902 136.167 126.801C135.142 127.717 134.093 128.65 133.063 129.567C119.654 141.471 106.857 152.56 91.852 165.495C79.1686 176.447 64.7713 188.693 47.3293 203.954C34.2107 215.697 19.2732 228.026 6.36521 246.923C-8.78043 268.629 -26.9647 295.409 -40.7522 328.635C-43.3544 335.828 -44.7074 344.249 -45.1282 353.066C-45.6274 364.842 -44.4509 379.543 -41.0564 387.568C-32.7482 402.837 -9.39103 407.861 11.2569 413.427C14.53 414.273 16.9567 414.646 20.2356 414.758C23.3905 414.87 26.8757 414.83 30.359 414.811C56.5089 414.813 82.974 407.575 109.107 399.994C171.038 380.999 232.255 357.621 292.019 332.141C331.654 315.011 370.385 296.071 407.288 273.997C428.563 261.565 447.892 247.782 467.626 232.507C490.068 215.193 511.242 195.195 530.924 174.318C552.222 151.501 571.72 126.632 590.155 101.131C602.797 83.2894 614.301 66.0031 617.557 45.258C618.081 43.4072 616.967 40.0308 613.978 36.1056C610.501 31.4322 605.913 27.522 600.929 25.1452C597.596 23.5678 594.048 23.4963 587.469 24.1503C584.986 24.1965 577.642 28.7632 572.207 33.0103C566.378 37.4237 560.699 42.3313 554.133 47.1905C534.917 60.9219 515.387 72.2777 497.678 85.6298C475.239 102.094 453.786 118.329 433.086 136.243C395.44 168.786 359.398 203.592 324.251 239.124C299.241 264.482 274.755 290.428 250.455 316.579C246.878 320.45 243.238 324.399 239.563 328.391C232.928 335.599 226.17 342.964 219.282 350.457C201.134 370.282 181.864 390.729 163.528 411.436C153.434 423.064 143.215 435.4 136.812 447.609C122.695 469.672 108.791 485.541 95.1165 502.897C78.2212 523.401 68.3724 546.026 61.0491 567.272C59.6819 571.167 58.4962 575.125 57.423 579.008C53.1617 594.647 50.2216 610.09 47.9796 624.709C44.8867 645.609 43.649 666.302 47.218 682.104C55.1155 702.97 76.9865 720.513 92.652 735.726C101.546 742.65 119.844 744.317 133.823 745.592C150.418 746.835 167.302 747.022 184.22 746.937C212.182 742.567 244.157 719.821 274.011 704.581C365.247 653.974 455.748 601.164 542.729 543.74C600.35 505.363 655.647 463.626 706.621 416.976C725.195 399.192 747.206 381.158 750.774 357.769C750.98 356.7 751.039 355.392 750.932 354.228C750.866 353.105 750.424 351.888 750.457 352.033C750.294 351.778 750.192 351.69 750.15 351.656C750.106 351.625 750.109 351.617 749.976 351.576C749.74 351.489 748.824 351.445 747.657 351.718C745.275 352.244 742.25 353.675 739.349 355.327C733.434 358.689 727.707 363.013 721.202 367.248C693.661 384.63 665.447 398.177 639.393 416C614.763 432.488 590.816 450.482 566.437 468.007C565.823 468.447 565.216 468.881 564.627 469.3C553.578 477.259 542.434 484.579 532.008 492.8C509.707 509.99 489.07 529.343 469.455 549.782C452.211 567.813 435.577 586.653 419.108 605.605C406.857 619.717 394.735 633.97 382.577 648.195C371.212 661.477 359.854 674.676 348.826 688.096C338.717 700.382 328.881 712.866 319.222 725.552C302.587 747.666 287.36 771.344 289.712 798.576C289.911 804.158 301.492 813.041 310.864 818.593C320.808 824.593 331.486 829.799 342.302 834.679C352.074 838.562 367.779 837.354 381.402 838.016C394.889 838.35 408.471 838.458 422.037 838.52C436.638 838.534 451.081 838.471 465.268 838.323C490.146 838.16 511.976 823.544 531.254 808.214C540.909 800.585 549.837 792.889 558.158 784.56C560.852 781.931 563.631 779.015 567.305 776.295C589.334 762.422 610.237 766.732 629.222 765.599C647.103 765.003 663.934 774.507 675.042 784.292C686.937 796.83 685.456 808.302 687.218 818.777C688.221 829.315 688.536 839.266 688.841 848.837C688.884 850.259 688.897 851.657 688.892 853.032C688.826 865.39 687.338 877.153 690.727 885.917C696.249 901.567 710.903 911.549 727.881 919.519C755.311 932.359 790.246 927.759 819.789 918C846.468 908.175 869.914 888.591 892.678 871.545C910.951 857.673 924.178 838.8 936.207 820.805C938.571 817.245 940.766 813.689 942.79 810.13C950.835 796.046 956.089 781.725 958.519 767.999C960.463 757.25 960.661 746.362 960.765 734.728C960.749 734.96 960.841 735.696 961.228 736.324C961.605 736.957 962.037 737.23 962.093 737.263C962.226 737.305 961.332 736.957 960.237 736.764C954.715 735.548 946.29 740.071 939.44 745.642C921.853 760.73 907.506 782.472 892.584 802.57C876.526 824.696 864.286 849.624 854.222 875.422C852.676 879.383 851.366 883.428 850.305 887.534C848.946 892.47 847.927 897.571 847.291 902.792C845.161 920.584 847.274 940.961 856.653 959.34C862.502 969.731 879.142 977.065 894.79 984.571C909.109 991.166 926.563 994.892 945.165 998.358C968.056 1002.47 993.338 1005.45 1020.81 1007.54C1036.04 1008.63 1051.86 1009.43 1068.12 1007.91C1070.62 1007.68 1073.14 1007.4 1075.67 1007.06C1093.12 1004.78 1111.03 999.56 1129.56 992.734C1158.15 982.4 1187.27 967.386 1217.81 949.375C1229.81 942.302 1242.03 934.76 1254.46 926.78C1297.78 898.728 1319.15 882.893 1336.71 870.201C1341.86 866.43 1346.66 862.867 1351.5 859.211C1360.45 852.44 1369.52 845.257 1379.05 837.41C1387.14 830.758 1395.56 823.627 1404.53 815.857C1429.88 793.862 1459.82 766.923 1498.47 730.372C1518.78 711.115 1536.8 693.213 1552.77 676.506C1588.27 639.392 1613.3 607.794 1630.3 579.702C1652.53 544.052 1658.03 514.002 1662.26 488.132C1662.32 487.79 1662.37 487.448 1662.43 487.105C1664.72 471.636 1664.97 456.911 1665.22 441.949C1665.37 431.105 1665.26 419.243 1665.39 406.615C1665.45 393.967 1665.65 381.034 1661.45 369.015C1660.55 366.222 1659.3 364.505 1657.29 363.408C1644.54 356.569 1627.35 374.628 1613.85 385.801C1606.07 392.504 1599.22 399.951 1592.98 407.238C1585.24 416.271 1575.88 428.395 1565.68 442.493C1539.72 478.137 1509.86 526.657 1487.67 567.349C1482.63 576.544 1476.88 587.165 1470.62 599.11C1462.34 614.896 1453.18 632.985 1443.43 652.915C1425.71 689.106 1406.05 731.403 1385.8 777.049C1381.41 786.926 1377.2 796.49 1373.22 805.57C1356.62 842.36 1347.42 873.667 1345.04 902.552C1341.73 931.041 1343.74 955.418 1349.39 975.374C1352.77 987.023 1360.6 995.914 1368.94 1003.51C1371.08 1005.46 1373.27 1007.34 1375.48 1009.19C1383.92 1016.32 1394.09 1020.23 1404.84 1022.54C1409 1023.44 1413.36 1024.14 1417.89 1024.76C1440.1 1027.62 1466.19 1021.68 1491.02 1011.6C1504.97 1005.33 1515.93 987.507 1527.92 973.201C1529.97 970.614 1531.97 967.933 1533.94 965.212C1548.69 944.686 1561.88 922.606 1575.7 901.617C1588.86 881.786 1606.76 862.173 1630.57 857.883C1642.45 855.898 1652.24 859.835 1660.88 863.369C1668.77 867.317 1671.32 873.233 1674.4 878.017C1676.97 882.486 1679.23 886.911 1681.53 891.284C1693.94 919.642 1691.38 948.109 1692.11 975.998C1692.15 1003.73 1685.5 1032.12 1669.6 1055.58C1669.37 1055.91 1669.14 1056.22 1668.89 1056.53C1668.63 1056.84 1668.43 1057.09 1667.93 1057.56C1667.7 1057.77 1667.45 1057.98 1667.16 1058.18C1667.01 1058.28 1666.85 1058.39 1666.68 1058.48C1666.46 1058.61 1666.15 1058.77 1665.83 1058.89C1665.18 1059.13 1664.33 1059.31 1663.42 1059.21C1662.42 1059.13 1661.4 1058.68 1660.72 1058.13C1659.97 1057.52 1659.72 1057.13 1659.45 1056.74C1659.2 1056.35 1659.03 1055.99 1658.88 1055.64C1658.63 1054.99 1658.55 1054.66 1658.44 1054.19C1658.39 1053.98 1658.35 1053.74 1658.32 1053.55C1658.29 1053.38 1658.26 1053.21 1658.24 1053.04C1658.2 1052.71 1658.17 1052.36 1658.14 1052.01C1657.98 1049.49 1658.13 1047.43 1658.31 1045.21C1658.68 1040.98 1659.31 1036.85 1660.03 1032.76C1661.5 1024.56 1663.37 1016.57 1665.53 1008.62C1669.91 992.74 1675.25 977.076 1682.99 962.218C1692.47 943.972 1709.35 931.444 1726.12 921.979C1740.79 913.56 1757.78 914.696 1772.68 916.751C1783.17 918.161 1792.51 923.732 1799.86 930.462C1807.24 937.199 1813.11 945.003 1818.42 952.866C1833.29 974.526 1842.14 998.938 1848.24 1021.78C1855.22 1048 1860.52 1072.53 1866.61 1093.58L1866.56 1093.42C1867.67 1096.49 1868.8 1099.47 1869.95 1102.35C1877.3 1121.21 1886.52 1135.22 1896.42 1142.64L1896.3 1142.56C1911.29 1151.71 1920.41 1155.19 1920.11 1155.76C1920.01 1155.96 1910.77 1153.39 1894.95 1144.72L1894.88 1144.67C1884.2 1137.44 1873.98 1122.91 1866.04 1103.98C1864.79 1101.07 1863.56 1098.08 1862.36 1095L1862.32 1094.89C1855.65 1073.76 1849.85 1049.23 1842.54 1023.38C1836.14 1000.82 1827.33 977.497 1812.8 956.687C1807.59 949.102 1801.91 941.742 1795.16 935.664C1788.41 929.568 1780.4 924.982 1771.7 923.867C1757.15 921.903 1741.9 921.34 1729.85 928.44C1713.52 937.786 1698.27 949.503 1689.91 965.841C1682.69 979.917 1677.53 995.247 1673.37 1010.73C1671.32 1018.48 1669.55 1026.29 1668.19 1034.18C1667.52 1038.11 1666.94 1042.07 1666.63 1045.9C1666.48 1047.86 1666.39 1049.77 1666.51 1051.39C1666.54 1051.83 1666.58 1052.1 1666.64 1052.36C1666.66 1052.47 1666.68 1052.52 1666.66 1052.45C1666.64 1052.41 1666.6 1052.31 1666.51 1052.17C1666.4 1052.02 1666.31 1051.84 1665.89 1051.5C1665.5 1051.19 1664.85 1050.89 1664.23 1050.84C1663.66 1050.79 1663.17 1050.9 1662.85 1051.02C1662.7 1051.08 1662.57 1051.14 1662.49 1051.19C1662.42 1051.22 1662.38 1051.26 1662.34 1051.28C1662.26 1051.34 1662.23 1051.37 1662.22 1051.37C1662.23 1051.37 1662.4 1051.17 1662.64 1050.83C1677.16 1029.14 1683.4 1002.34 1683.17 976.035C1682.5 948.621 1683.88 919.197 1673.18 895.701C1668.6 887.4 1664.28 877.646 1658.62 873.067C1658.09 872.684 1657.58 872.388 1657.09 872.177C1648.87 868.692 1639.94 865.932 1632.43 867.376C1611.58 871.244 1596.05 888.85 1583.95 907.088C1568.24 931.044 1553.81 956.117 1535.9 979.51C1523.6 993.735 1515.1 1011.07 1494.96 1021.16C1470.43 1031.01 1444.1 1038.38 1416.45 1035.19C1400.27 1033.1 1382.36 1029.01 1368.65 1017.32C1356.74 1007.43 1343.96 995.213 1339.13 978.352C1332 953.025 1331.42 926.844 1334.35 901.268C1335.3 893.264 1336.3 885.184 1337.75 877.077C1342.43 850.318 1352.82 825.431 1363.31 801.212C1393.96 731.411 1425.43 661.778 1460.72 593.918C1468.86 578.371 1477.23 562.974 1485.88 547.723C1491.99 536.938 1498.26 526.206 1504.65 515.59C1521.04 488.101 1538.39 461.136 1556.46 435.834C1571.87 414.577 1586.88 393.674 1605.86 376.676C1613.45 370.017 1620.82 363.128 1629.56 357.222C1637.65 351.601 1651.32 345.504 1663.29 352.239C1668.62 354.921 1672.24 360.54 1673.59 365.098C1677.78 376.911 1678.23 389.302 1678.37 399.689C1678.39 402.088 1678.39 404.447 1678.36 406.79C1678.23 437.763 1678.74 464.724 1674.84 489.177C1671.83 507.108 1668.2 523.451 1663.09 538.326C1657 556.164 1648.98 571.588 1640.2 585.81C1636.85 591.227 1633.43 596.54 1629.87 601.811C1623 612.007 1613.11 625.582 1600.29 641.13C1589.36 654.42 1576.35 669.152 1561.58 684.84C1515.07 734.06 1452.64 793.358 1386.82 846.965C1373.7 857.605 1360.48 867.952 1347.22 877.959C1310.91 905.357 1268.41 934.585 1224.32 960.393C1213.95 966.459 1203.45 972.359 1192.91 977.919C1173.43 988.221 1153.51 997.328 1133.86 1004.39C1114.79 1011.34 1095.68 1016.83 1077.29 1019.16C1055.95 1021.99 1036.43 1020.75 1019.94 1019.59C1005.9 1018.55 993.737 1017.31 983.866 1016.23C970.535 1014.74 956.862 1012.95 942.968 1010.48C925.432 1007.2 907.336 1003.89 889.537 995.913C874.659 988.197 857.351 983.571 845.463 965.378C830.857 936.932 830.266 903.96 839.696 876.131C840.337 874.234 841.011 872.393 841.741 870.537C852.939 841.944 866.513 815.876 881.929 794.816C900.143 770.018 915.243 748.527 931.155 735.263C931.802 734.738 932.444 734.231 933.082 733.739C940.878 728.035 950.076 721.595 962.832 723.555C964.516 723.913 966.424 724.232 968.975 725.678C971.574 726.822 974.654 731.629 974.25 734.959C975.099 763.336 969.449 796.213 947.446 828.221C947.284 828.465 947.122 828.708 946.959 828.951C935.643 845.534 922.763 865.273 900.83 882.203C883.031 895.473 863.748 911.734 837.401 925.162C833.085 927.279 828.681 929.175 824.205 930.723C786.259 943.185 750.257 944.904 722.086 931.51C705.322 923.571 688.95 912.739 681.219 896.696C680.198 894.674 679.305 892.616 678.529 890.537C673.19 874.957 676.607 861.313 676.031 849.205C675.028 829.813 676.507 805.744 667.025 793.936C656.368 784.768 644.223 777.8 629.23 778.11C622.597 778.152 615.817 778.238 608.86 778.552C596.371 779.237 583.278 780.03 574.762 786.5C564.265 795.921 551.617 808.681 539.082 818.196C518.126 835.041 492.964 850.979 465.356 850.921C447.59 851.058 430.588 851.037 414.676 850.895C404.024 850.793 392.774 850.67 381.081 850.369C367.464 849.404 354.298 851.952 337.232 845.941C331.562 843.392 325.87 840.711 320.191 837.832C312.175 833.747 304.165 829.348 296.42 823.954C289.198 818.096 279.449 813.595 277.347 798.797C274.797 769.377 291.419 742.284 306.678 721.912C307.604 720.672 308.552 719.422 309.521 718.162C329.745 691.795 347.909 670.737 364.139 652.283C367.54 648.408 370.859 644.636 374.1 640.943C375.865 638.932 377.686 636.85 379.408 634.882C389.824 622.664 400.224 610.471 410.736 598.344C418.587 589.287 426.488 580.269 434.485 571.322C437.471 567.892 440.62 564.295 443.927 560.562C449.163 554.653 454.827 548.352 461.027 541.707C474.562 527.25 490.625 510.995 510.763 493.988C515.286 490.178 519.839 486.5 524.373 482.957C535.373 474.216 546.661 466.775 557.322 459.064C582.632 440.874 606.767 422.759 632.497 405.643C637.74 402.183 643.052 398.783 648.422 395.465C669.55 382.156 692.504 371.067 714.609 356.996C720.29 353.333 726.213 348.851 732.983 344.944C736.419 343.006 740.005 341.08 744.648 339.917C746.97 339.381 749.705 338.987 752.884 339.75C756.078 340.455 759.176 342.9 760.723 345.472C763.821 351.24 763.417 355.212 762.761 360.032C762.239 362.834 761.616 365.923 760.654 368.991C752.149 392.837 732.957 409.007 715.021 426.203C704.234 436.101 693.115 446.024 681.813 455.699C636.768 494.39 589.106 528.654 555.273 551.207C553.512 552.384 551.768 553.54 550.038 554.678C539.485 561.619 529.965 567.589 520.486 573.46C520.437 573.49 520.388 573.519 520.339 573.549C519.591 574.012 518.839 574.478 518.089 574.941C440.481 624.796 361.019 671.557 280.549 716.426C274.643 719.698 268.814 722.923 262.982 726.136C255.492 730.308 247.874 734.529 240.367 738.613C222.28 747.597 206.513 759.612 184.328 761.213C164.487 761.518 146.589 761.277 132.466 760.391C121.517 758.605 105.007 761.997 82.2085 747.14C66.7895 731.624 44.5569 717.748 31.7045 686.334C27.2405 666.956 28.6329 648.573 30.6941 629.753C30.9944 627.264 31.3216 624.808 31.684 622.306C34.7644 601.885 38.5441 581.627 45.1626 561.731C53.6518 535.981 66.1709 511.11 81.3415 492.633C81.4786 492.461 81.6161 492.289 81.7541 492.116C95.7493 474.399 110.977 456.372 121.822 440.08C122.489 438.782 123.198 437.51 123.911 436.292C131.797 423.185 141.215 412.141 151.293 400.683C157.223 394.016 163.355 387.347 169.67 380.454C178.199 371.152 187.385 361.127 197.18 350.399C200.47 346.796 203.829 343.116 207.255 339.361C212.792 333.292 218.538 326.995 224.457 320.543C233.37 310.855 253.298 289.382 279.374 262.24C289.669 251.535 300.925 239.964 312.886 227.931C319.658 221.119 326.646 214.168 333.803 207.135C362.57 178.637 391.9 150.691 422.641 124.102C443.576 105.926 465.984 88.9382 487.97 72.7866C492.258 69.5434 496.603 66.4578 500.969 63.4477C513.627 54.56 524.716 47.2848 533.157 41.2686C537.15 38.4309 540.675 35.8268 543.922 33.2449C545.531 31.9583 547.159 30.5785 548.816 29.1526C555.694 23.4856 561.663 16.8141 574.876 9.12466C577.762 7.66778 580.936 6.00186 586.187 5.49518C591.684 4.73367 602 4.46002 609.009 8.19289C610.434 8.88162 611.741 9.6044 612.925 10.3244C616.834 12.7199 619.459 14.9882 621.707 17.1442C624.263 19.6349 626.344 22.0297 628.656 25.1091C628.665 25.1208 628.673 25.1324 628.682 25.1441C630.305 27.3614 632.08 29.7725 633.833 33.5793C635.348 37.005 637.17 42.2909 635.805 49.1505C635.239 51.956 634.574 55.5163 633.408 59.7861C628.042 79.2194 616.743 95.8859 605.239 112.007C594.147 127.301 582.35 142.676 570.085 157.485C561.693 167.613 553.077 177.479 544.26 186.829C523.877 208.375 503.294 227.226 484.576 242.221C482.641 243.761 480.627 245.331 478.52 246.919C461.868 259.703 440.328 275.477 416.341 289.227C398.706 299.614 379.685 309.872 360.417 319.388C339.764 329.605 318.748 339.088 298.677 347.606C285.949 353.008 273.563 358.056 261.936 362.692C232.576 374.388 201.844 386.058 171.794 396.664C151.991 403.639 132.508 410.17 113.752 415.708C98.2607 420.265 83.341 424.1 69.1743 426.758C62.8038 427.93 54.8336 429.145 44.5751 429.728C40.2549 429.969 35.4259 430.03 30.4276 429.902C27.081 429.819 23.6145 429.779 19.6425 429.547C15.7837 429.443 11.2266 428.72 7.58049 427.721C-12.9765 421.453 -39.1333 418.605 -53.7366 394.555C-60.3806 377.899 -59.8129 364.558 -59.2405 349.564C-59.1664 348.094 -59.063 346.573 -58.9294 345.05C-58.9275 345.025 -58.9256 345.001 -58.9237 344.977C-58.3219 338.363 -57.2178 331.212 -54.6196 323.613C-45.0719 298.428 -29.4103 270.781 -6.10739 238.04C-1.74075 231.966 3.17805 225.598 8.85708 219.552C20.3419 207.532 28.2673 201.354 35.1816 195.448C36.1076 194.674 36.9773 193.951 37.8971 193.184C43.7097 188.353 49.3411 183.702 57.0052 177.188C67.0501 168.65 78.8076 158.484 91.566 147.364C103.655 136.819 116.683 125.404 129.864 113.627C136.213 107.949 142.59 102.175 148.947 96.3571C150.273 95.1441 151.714 93.8209 153.209 92.44C163.242 83.2123 176.359 70.6059 190.501 56.8675C196.312 51.2918 202.018 45.5148 207.836 39.5106C210.249 37.0007 212.736 34.3394 215.881 31.8433C241.203 13.5353 262.53 -7.8773 297.714 -16.0806C301.335 -15.9856 305.008 -15.896 308.893 -15.4883C310.842 -15.2689 312.83 -15.007 315.102 -14.3427C316.246 -13.9864 317.491 -13.5731 318.984 -12.5695C320.413 -11.7069 322.622 -9.10199 322.514 -6.17638C322.064 7.19403 317.352 18.3938 311.827 29.2391C301.975 50.2232 287.921 69.4496 273.876 87.7391C268.649 94.5095 263.197 101.151 257.529 107.577C242.749 124.361 226.445 139.715 209.206 153.837C192.518 167.421 175.727 180.9 157.268 192.616C138.764 204.148 119.765 214.988 100.009 224.389C71.7316 237.267 42.1392 248.922 9.87165 249.251C-5.22118 248.922 -20.2327 248.815 -35.3984 248.447C-43.0096 248.235 -50.5398 248.006 -58.2768 247.182C-62.1457 246.74 -66.0239 246.202 -70.0352 244.935C-73.7926 243.765 -79.2151 241.092 -80.3771 235.372C-82.1478 226.775 -81.2478 218.147 -78.8906 210.063C-77.0863 203.873 -75.4969 197.36 -73.8396 190.947C-66.5356 163.25 -59.4957 135.298 -44.3682 112.174C-28.3154 87.7127 -13.4787 64.0058 2.07827 45.2047C6.00358 40.3937 10.045 35.9588 14.0201 31.8319C48.4731 -2.66942 71.9399 -17.1568 72.1102 -16.7914C72.8238 -16.0194 50.1651 -0.298761 17.0628 34.6891C13.2566 38.8578 9.39852 43.3125 5.69135 48.0817C-9.26108 67.0513 -23.3269 90.4853 -39.3139 115.61C-53.1365 137.304 -60.0511 165.1 -67.0673 192.662C-68.6811 199.084 -70.2083 205.557 -72.0533 212.06C-74.1029 219.197 -74.7552 226.888 -73.2556 233.818C-73.0537 237.234 -64.3587 239.162 -57.4865 239.777C-50.204 240.504 -42.7555 240.688 -35.2271 240.843C-20.1911 241.102 -5.12757 241.104 10.0103 241.326C39.495 240.908 68.9987 229.402 96.2867 216.647C115.602 207.284 134.228 196.481 152.447 184.943C164.303 177.367 175.69 168.624 186.901 159.726C191.445 156.09 195.974 152.387 200.459 148.665C201.346 147.928 202.234 147.189 203.113 146.455C227.275 126.313 247.906 104.757 265.441 81.2691C271.293 73.4777 276.943 65.6727 282.292 57.7189C287.401 50.1043 292.202 42.4333 296.351 34.4413Z" fill="url(#paint0_linear_287_7210)" fill-opacity="0.5"/>
</g>
<defs>
<linearGradient id="paint0_linear_287_7210" x1="-17.7403" y1="19.5" x2="1999.76" y2="1057.5" gradientUnits="userSpaceOnUse">
<stop offset="0.0336539" stop-color="#6825A2"/>
<stop offset="0.416926" stop-color="#8552B2"/>
<stop offset="0.728176" stop-color="#BDB7E9"/>
</linearGradient>
<clipPath id="clip0_287_7210">
<rect width="1920" height="1080" fill="white"/>
</clipPath>
</defs>
</svg>
