<svg width="737" height="500" viewBox="0 0 737 500" fill="none" xmlns="http://www.w3.org/2000/svg">
<path d="M177.742 272.209C177.69 272.209 177.639 272.209 179.856 254.616C182.073 237.024 186.561 201.84 190.874 180.178C196.715 150.84 206.705 141.466 214.722 136.2C232.208 124.71 244.728 127.111 256.147 128.439C269.801 130.027 283.993 145.453 294.729 157.877C298.99 162.807 299.939 170.693 301.247 179.197C302.685 188.545 301.452 198.922 293.674 223.351C287.468 242.844 273.248 275.567 264.948 295.08C254.407 319.862 248.061 328.794 240.643 337.67C231.04 349.161 220.132 355.06 213.146 357.107C205.922 359.223 197.741 357.15 190.137 353.562C182.299 349.864 178.124 340.064 174.02 330.198C169.479 319.281 169.258 303.545 169.461 285.251C169.564 275.987 170.928 266.799 174.217 254.752C177.506 242.704 183.002 228.087 187.338 218.114C193.946 202.915 201.997 193.258 210.598 184.001C218.592 175.397 228.493 171.131 240.2 168.527C256.847 164.824 273.146 167.235 288.274 170.426C310.372 175.088 328.825 183.871 340.968 189.913C353.074 195.936 363.642 204.274 373.421 212.605C382.981 220.75 390.012 230.552 396.985 242.059C406.325 257.47 410.364 277.233 412.449 294.27C414.064 307.467 412.15 318.076 408.824 327.375C405.415 336.908 396.648 344.747 387.805 352.695C378.831 360.762 366.497 364.34 354.816 367.321C343.658 370.169 332.543 368.951 322.395 366.486C312.039 363.971 304.177 354.765 297.203 345.399C290.129 335.899 287.054 323.488 284.455 311.042C281.861 298.618 283.818 283.316 287.715 266.037C291.631 248.679 302.427 231.745 315.429 213.854C322.176 204.57 330.315 195.685 342.706 185.007C355.097 174.33 371.772 162.338 387.807 153.1C403.843 143.861 418.735 137.74 429.966 133.658C448.095 127.071 462.375 124.931 475.844 123.556C489.107 122.203 502.477 124.079 515.641 127.357C529.279 130.753 541.395 139.135 552.267 146.75C561.898 153.496 567.712 163.607 573.093 173.801C578.722 184.463 580.57 196.954 581.78 209.209C583.005 221.623 581.141 234.474 578.525 247.249C577.2 253.72 574.758 259.912 570.326 269.489C565.895 279.066 559.263 291.775 551.329 304.339C543.395 316.903 534.361 328.937 527.26 337.551C520.16 346.164 515.266 350.991 507.399 357.318C489.279 371.89 471.843 382.325 459.69 388.204C447.616 394.044 436.005 397.078 425.684 399.047C414.79 401.125 403.089 399.889 392.049 397.844C381.426 395.876 372.767 387.162 364.671 377.895C356.226 368.229 352.994 353.921 349.898 339.084C346.578 323.172 348.439 304.795 351.91 285.253C353.707 275.134 357.963 265.102 362.131 256.176C366.298 247.249 370.859 239.858 381.04 228.924C391.222 217.989 406.887 203.734 418.149 194.81C434.913 181.526 449.929 176.921 465.102 172.51C479.849 168.223 495.096 168.373 509.386 169.133C523.198 169.867 535.69 176.559 547.252 184.287C559.135 192.229 568.097 204.457 576.218 216.699C584.024 228.466 588.448 241.911 592.318 255.39C596.258 269.109 597.262 290.705 597.375 315.296C597.453 332.219 591.839 344.499 586.61 355.726C581.591 366.502 573.588 375.368 565.56 383.814C557.479 392.317 547.109 398.044 536.831 403.01C526.358 408.07 513.933 409.813 497.123 411.102C486.585 411.911 471.868 411.143 460.71 410.192C449.552 409.241 442.374 407.647 431.719 404.054C421.063 400.462 407.148 394.921 396.839 390.426C380.043 383.103 368.436 375.625 357.896 367.866C352.556 363.935 347.791 359.286 339.872 350.459C331.954 341.632 321.168 328.58 312.797 316.949C297.836 296.163 290.828 278.085 287.098 263.263C285.226 255.821 284.648 248.253 284.439 236.961C284.23 225.668 284.727 210.807 285.702 199.072C287.362 179.102 291.89 163.892 298.668 148.016C307.612 127.063 319.631 113.743 325.831 107.724C331.771 101.956 338.643 98.2854 345.505 95.5016C352.709 92.579 366.594 91.5688 383.886 91.2829C405.653 90.9229 418.899 102.867 430.46 116.035C444.973 132.566 439.93 158.205 438.381 172.711C437.6 180.036 435.232 187.071 423.458 210.302C411.684 233.533 390.168 272.691 371.851 302.791C353.534 332.89 339.069 352.745 327.785 366.827C309.728 389.362 297.688 398.81 291.304 402.727C280.071 409.62 267.514 406.816 252.958 402.188C242.557 398.881 226.51 392.216 210.981 385C195.452 377.785 181.05 369.862 171.532 364.238C157.548 355.974 146.649 345.397 133.209 330.388C119.051 314.578 112.068 299.432 108.122 289.717C104.166 279.98 101.846 262.22 100.176 239.932C98.9055 222.981 104.684 207.341 112.206 190.639C120.157 172.985 133.711 159.086 145.385 146.88C151.042 140.965 156.906 136.353 166.677 129.685C176.449 123.016 190.143 114.619 201.449 108.602C220.805 98.3009 237.897 93.6218 257.634 90.1195C269.394 88.0328 285.1 88.0608 297.12 88.0037C309.14 87.9467 317.101 88.5049 335.972 92.2999C354.843 96.0949 384.382 103.11 407.449 110.102C430.515 117.094 446.213 123.851 468.141 136.535C490.069 149.219 517.751 167.625 538.397 182.673C559.043 197.72 571.813 208.852 580.995 217.487C595.842 231.45 605.26 244.133 613.249 256.101C620.041 266.276 622.761 276.486 625.194 287.534C628.529 302.68 626.69 316.854 623.666 326.199C620.723 335.296 611.707 341.915 602.438 348.544C592.749 355.473 580.143 359.66 565.925 363.666C549.794 368.21 530.512 369.007 510.409 369.374C500.315 369.558 490.437 368.497 475.467 365.818C460.496 363.139 440.732 358.556 417.407 350.186C394.082 341.817 367.797 329.798 347.637 319.188C327.477 308.578 314.24 299.741 304.549 292.485C288.567 280.52 279.798 268.694 273.655 257.278C267.609 246.045 266.04 232.936 265.005 220.268C263.988 207.82 267.679 195.026 272.666 182.084C277.912 168.47 287.786 157.176 297.385 147.064C306.823 137.121 318.906 130.871 331.359 125.548C345.293 119.592 361.563 118.88 376.902 117.888C392.196 116.898 411.046 119.388 433.425 123.066C444.887 124.95 456.28 128.428 471.473 134.301C486.665 140.173 505.239 148.732 518.387 155.574C531.535 162.415 538.693 167.281 549.253 175.936C559.813 184.592 573.558 196.89 585.569 209.356C597.581 221.822 607.442 234.083 614.719 245.209C627.749 265.128 632.456 282.193 635.135 294.361C639.631 314.789 635.275 334.839 627.968 353.483C624.237 363.002 617.091 370.744 610.631 378.344C603.987 386.161 595.35 392.476 586.568 398.3C577.904 404.045 568.552 407.021 557.884 409.512C542.933 413.003 528.44 412.008 518.357 410.862C508.989 409.798 496.591 402.534 480.787 391.95C464.819 381.257 455.685 368.024 449.66 358.89C444.073 350.42 442.014 340.27 440.436 329.283C438.609 316.562 441.112 302.47 444.258 289.082C447.239 276.39 455.031 264.801 462.957 253.265C470.516 242.262 481.455 234.004 492.874 226.259C504.333 218.487 516.725 213.784 528.05 210.796C538.237 208.109 551.913 208.29 566.521 208.707C583.678 209.196 601.053 221.926 612.167 230.342C614.387 232.591 617.144 235.741 619.214 238.444C621.283 241.147 622.582 243.307 625.016 246.791" stroke="white" stroke-width="2" stroke-linecap="round"/>
</svg>
