<svg width="1920" height="1080" viewBox="0 0 1920 1080" fill="none" xmlns="http://www.w3.org/2000/svg">
<path d="M1318.02 497.04C1313.5 494.865 1300.57 488.821 1289.87 488.653C1287.71 488.619 1286.78 490.659 1286.17 492.109C1284.98 494.94 1285.23 498.648 1285.83 502.263C1287.28 511.018 1301.69 515.325 1309.01 517.611C1315.77 519.72 1322.36 516.887 1325.89 514.957C1332.07 511.576 1336.06 504.912 1337.77 497.784C1339.05 492.447 1337.29 487.711 1335.86 484.93C1332.59 478.571 1322.3 474.525 1311.76 472.266C1299.4 469.616 1289.18 472.082 1285.55 473.328C1278.06 475.898 1272.36 485.225 1267.42 495.686C1264.5 501.852 1264.52 512.113 1265.35 522.873C1265.92 530.177 1271.61 533.883 1276.81 537.344C1295.54 549.801 1329.68 548.36 1345.64 543.985C1354.8 541.472 1359.75 533.713 1362.66 529.322C1371.17 516.504 1364.55 496.148 1359.26 484.329C1355.2 475.261 1347.72 465.323 1339.15 455.994C1332.37 448.618 1307.68 449.61 1282.96 457.023C1263.94 462.725 1255.21 478.326 1241.23 498.889C1235.83 506.817 1235.84 514.291 1235.69 540.901C1235.65 548.127 1238.23 551.209 1242.67 557.254C1251.64 569.463 1273.47 585.382 1300.5 599.805C1320.16 610.301 1336.73 608.569 1346.67 608.204C1361.99 607.642 1386.51 584.905 1402.72 560.433C1408.74 551.356 1408.29 543.273 1409 534.758C1412.07 497.533 1396.17 470.598 1391.13 463.021C1389.13 460.006 1381.08 448.567 1366.94 430.835C1345.98 404.553 1328.71 400.61 1317.05 397.312C1297.3 391.727 1284.43 396.119 1272.16 402.33C1265.81 405.542 1256.37 412.731 1245.9 421.561C1235.43 430.391 1224.56 441.251 1214.52 453.016C1194.64 476.326 1182.92 496.641 1177.19 508.042C1171.82 518.728 1171.07 532.425 1172.05 568.817C1172.5 585.633 1185.21 601.197 1197.39 618.168C1203.38 626.524 1211.1 632.753 1222.11 640.384C1233.12 648.015 1247.73 656.449 1261.72 662.992C1275.72 669.535 1288.66 673.932 1317.43 677.609C1346.21 681.287 1390.43 684.112 1414.91 685.424C1449.71 687.289 1467.79 679.336 1481.35 672.299C1495.89 664.749 1508.52 644.726 1515.81 617.877C1519.56 604.093 1518.51 580.589 1516.18 557.961C1513.85 535.332 1508.06 513.869 1499.08 489.471C1490.09 465.073 1478.08 438.391 1468.37 419.49C1452.96 389.529 1440.81 375.897 1432.6 367.557C1422.48 357.27 1407.47 346.889 1391.84 337.791C1380.2 331.014 1368.44 328.491 1348.55 326.301C1334.67 324.774 1312.9 325.195 1295.49 327.347C1278.09 329.499 1265.66 334.083 1254.61 338.914C1243.56 343.744 1234.28 348.682 1223.6 355.807C1212.93 362.932 1201.14 372.096 1187.74 385.888C1174.34 399.681 1159.69 417.826 1149.24 431.955C1138.79 446.084 1132.98 455.648 1125.45 472.074C1117.92 488.501 1108.83 511.5 1103.54 527.485C1098.25 543.47 1097.03 551.744 1096.54 564.393C1096.05 577.042 1096.33 593.816 1099.41 608.472C1102.5 623.129 1108.38 635.161 1117.65 649.259C1126.92 663.358 1139.4 679.159 1152.6 692.671C1165.8 706.182 1179.33 716.926 1192.23 725.789C1205.14 734.652 1217 741.31 1232.06 748.138C1247.11 754.966 1264.99 761.762 1284.21 766.912C1303.42 772.062 1323.43 775.36 1353.52 777.27C1383.61 779.181 1423.17 779.603 1450.26 778.311C1477.36 777.019 1490.79 774.001 1503.62 769.383C1528.92 760.275 1548.04 746.71 1564.33 732.791C1584.42 715.625 1596.28 695.936 1603.13 683.946C1608.41 674.698 1613.48 659.448 1619.71 635.969C1623.03 623.456 1623.96 609.085 1624.25 582.326C1624.54 555.566 1623.48 516.688 1620.6 486.094C1617.73 455.501 1613.08 434.369 1608.01 416.794C1602.94 399.219 1597.58 385.84 1587.33 367.909C1577.07 349.979 1562.07 327.903 1546.52 311.722C1530.97 295.541 1515.32 285.924 1480.51 279.979C1445.71 274.035 1392.22 272.054 1353.72 273.722C1315.22 275.389 1293.32 280.765 1268.38 289.672C1243.44 298.579 1216.13 310.855 1189.86 326.856C1163.58 342.856 1139.17 362.208 1120.9 379.291C1102.63 396.375 1091.24 410.604 1082.31 423.986C1065.9 448.602 1058.16 470.709 1052.86 492.295C1049.75 504.971 1048.35 521.705 1047.3 542.502C1046.25 563.298 1046.25 587.795 1048.64 607.177C1052.75 640.6 1062.89 658.09 1072.67 672.2C1091.5 699.365 1110.09 718.085 1119.73 726.883C1133.52 739.475 1152.32 751.123 1183.74 764.843C1205.16 774.193 1239.47 783.98 1279.93 793.283C1320.39 802.585 1366.42 809.979 1410.07 814.441C1453.71 818.902 1493.57 820.208 1521.49 817.972C1549.41 815.736 1564.2 809.919 1575.44 804.343C1586.68 798.767 1593.92 793.608 1600.86 787.418C1607.8 781.229 1614.2 774.165 1634.36 738.206C1654.51 702.247 1688.22 637.608 1709.74 593.066C1731.26 548.524 1739.56 526.037 1745.79 502.871C1752.01 479.705 1755.89 456.542 1758.23 433.385C1760.57 410.228 1761.25 387.778 1760.92 370.455C1760.59 353.132 1759.22 341.616 1756.03 329.99C1749.55 306.441 1735.88 286.361 1718.01 266.315C1707.57 254.599 1691.94 241.987 1671.11 227.901C1650.28 213.816 1624.11 199.212 1594.73 186.878C1565.34 174.543 1533.54 164.92 1504.7 158.055C1475.86 151.189 1450.96 147.372 1406.69 145.389C1362.43 143.407 1299.55 143.376 1252.49 146.409C1205.43 149.443 1176.08 155.542 1155.55 160.776C1123.84 168.863 1106.75 178.664 1092.85 188.658C1075.83 200.891 1061.76 217.671 1047.4 241.907C1038.14 257.521 1028.07 281.637 1019.35 309.1C1010.63 336.564 1004.38 367.097 999.734 418.403C995.089 469.708 992.239 540.861 992.014 583.564C991.789 626.267 994.277 638.363 1000.77 656.113C1007.25 673.864 1017.67 696.901 1026.48 714.211C1035.3 731.521 1042.2 742.406 1054.11 757.455C1066.03 772.504 1082.75 791.387 1100.16 808.541C1117.58 825.696 1135.18 840.55 1167.39 858.195C1199.61 875.84 1245.89 895.825 1276.09 907.934C1306.28 920.042 1318.99 923.668 1337.97 927.05C1356.95 930.432 1381.81 933.46 1404.61 935.02C1427.4 936.58 1447.37 936.58 1461.99 935.105C1485.57 932.726 1495.81 926.498 1499.8 924.052C1519.24 912.785 1542.57 897.454 1545.5 895.334C1546.81 894.193 1547.73 892.923 1549.71 889.522" stroke="#BDB7E9" stroke-width="5.14215" stroke-linejoin="round" stroke-dasharray="15.43 15.43"/>
<path d="M1318.02 497.04C1313.5 494.865 1300.57 488.821 1289.87 488.653C1287.71 488.619 1286.78 490.659 1286.17 492.109C1284.98 494.94 1285.23 498.648 1285.83 502.263C1287.28 511.018 1301.69 515.325 1309.01 517.611C1315.77 519.72 1322.36 516.887 1325.89 514.957C1332.07 511.576 1336.06 504.912 1337.77 497.784C1339.05 492.447 1337.29 487.711 1335.86 484.93C1332.59 478.571 1322.3 474.525 1311.76 472.266C1299.4 469.616 1289.18 472.082 1285.55 473.328C1278.06 475.898 1272.36 485.225 1267.42 495.686C1264.5 501.852 1264.52 512.113 1265.35 522.873C1265.92 530.177 1271.61 533.883 1276.81 537.344C1295.54 549.801 1329.68 548.36 1345.64 543.985C1354.8 541.472 1359.75 533.713 1362.66 529.322C1371.17 516.504 1364.55 496.148 1359.26 484.329C1355.2 475.261 1347.72 465.323 1339.15 455.994C1332.37 448.618 1307.68 449.61 1282.96 457.023C1263.94 462.725 1255.21 478.326 1241.23 498.889C1235.83 506.817 1235.84 514.291 1235.69 540.901C1235.65 548.127 1238.23 551.209 1242.67 557.254C1251.64 569.463 1273.47 585.382 1300.5 599.805C1320.16 610.301 1336.73 608.569 1346.67 608.204C1361.99 607.642 1386.51 584.905 1402.72 560.433C1408.74 551.356 1408.29 543.273 1409 534.758C1412.07 497.533 1396.17 470.598 1391.13 463.021C1389.13 460.006 1381.08 448.567 1366.94 430.835C1345.98 404.553 1328.71 400.61 1317.05 397.312C1297.3 391.727 1284.43 396.119 1272.16 402.33C1265.81 405.542 1256.37 412.731 1245.9 421.561C1235.43 430.391 1224.56 441.251 1214.52 453.016C1194.64 476.326 1182.92 496.641 1177.19 508.042C1171.82 518.728 1171.07 532.425 1172.05 568.817C1172.5 585.633 1185.21 601.197 1197.39 618.168C1203.38 626.524 1211.1 632.753 1222.11 640.384C1233.12 648.015 1247.73 656.449 1261.72 662.992C1275.72 669.535 1288.66 673.932 1317.43 677.609C1346.21 681.287 1390.43 684.112 1414.91 685.424C1449.71 687.289 1467.79 679.336 1481.35 672.299C1495.89 664.749 1508.52 644.726 1515.81 617.877C1519.56 604.093 1518.51 580.589 1516.18 557.961C1513.85 535.332 1508.06 513.869 1499.08 489.471C1490.09 465.073 1478.08 438.391 1468.37 419.49C1452.96 389.529 1440.81 375.897 1432.6 367.557C1422.48 357.27 1407.47 346.889 1391.84 337.791C1380.2 331.014 1368.44 328.491 1348.55 326.301C1334.67 324.774 1312.9 325.195 1295.49 327.347C1278.09 329.499 1265.66 334.083 1254.61 338.914C1243.56 343.744 1234.28 348.682 1223.6 355.807C1212.93 362.932 1201.14 372.096 1187.74 385.888C1174.34 399.681 1159.69 417.826 1149.24 431.955C1138.79 446.084 1132.98 455.648 1125.45 472.074C1117.92 488.501 1108.83 511.5 1103.54 527.485C1098.25 543.47 1097.03 551.744 1096.54 564.393C1096.05 577.042 1096.33 593.816 1099.41 608.472C1102.5 623.129 1108.38 635.161 1117.65 649.259C1126.92 663.358 1139.4 679.159 1152.6 692.671C1165.8 706.182 1179.33 716.926 1192.23 725.789C1205.14 734.652 1217 741.31 1232.06 748.138C1247.11 754.966 1264.99 761.762 1284.21 766.912C1303.42 772.062 1323.43 775.36 1353.52 777.27C1383.61 779.181 1423.17 779.603 1450.26 778.311C1477.36 777.019 1490.79 774.001 1503.62 769.383C1528.92 760.275 1548.04 746.71 1564.33 732.791C1584.42 715.625 1596.28 695.936 1603.13 683.946C1608.41 674.698 1613.48 659.448 1619.71 635.969C1623.03 623.456 1623.96 609.085 1624.25 582.326C1624.54 555.566 1623.48 516.688 1620.6 486.094C1617.73 455.501 1613.08 434.369 1608.01 416.794C1602.94 399.219 1597.58 385.84 1587.33 367.909C1577.07 349.979 1562.07 327.903 1546.52 311.722C1530.97 295.541 1515.32 285.924 1480.51 279.979C1445.71 274.035 1392.22 272.054 1353.72 273.722C1315.22 275.389 1293.32 280.765 1268.38 289.672C1243.44 298.579 1216.13 310.855 1189.86 326.856C1163.58 342.856 1139.17 362.208 1120.9 379.291C1102.63 396.375 1091.24 410.604 1082.31 423.986C1065.9 448.602 1058.16 470.709 1052.86 492.295C1049.75 504.971 1048.35 521.705 1047.3 542.502C1046.25 563.298 1046.25 587.795 1048.64 607.177C1052.75 640.6 1062.89 658.09 1072.67 672.2C1091.5 699.365 1110.09 718.085 1119.73 726.883C1133.52 739.475 1152.32 751.123 1183.74 764.843C1205.16 774.193 1239.47 783.98 1279.93 793.283C1320.39 802.585 1366.42 809.979 1410.07 814.441C1453.71 818.902 1493.57 820.208 1521.49 817.972C1549.41 815.736 1564.2 809.919 1575.44 804.343C1586.68 798.767 1593.92 793.608 1600.86 787.418C1607.8 781.229 1614.2 774.165 1634.36 738.206C1654.51 702.247 1688.22 637.608 1709.74 593.066C1731.26 548.524 1739.56 526.037 1745.79 502.871C1752.01 479.705 1755.89 456.542 1758.23 433.385C1760.57 410.228 1761.25 387.778 1760.92 370.455C1760.59 353.132 1759.22 341.616 1756.03 329.99C1749.55 306.441 1735.88 286.361 1718.01 266.315C1707.57 254.599 1691.94 241.987 1671.11 227.901C1650.28 213.816 1624.11 199.212 1594.73 186.878C1565.34 174.543 1533.54 164.92 1504.7 158.055C1475.86 151.189 1450.96 147.372 1406.69 145.389C1362.43 143.407 1299.55 143.376 1252.49 146.409C1205.43 149.443 1176.08 155.542 1155.55 160.776C1123.84 168.863 1106.75 178.664 1092.85 188.658C1075.83 200.891 1061.76 217.671 1047.4 241.907C1038.14 257.521 1028.07 281.637 1019.35 309.1C1010.63 336.564 1004.38 367.097 999.734 418.403C995.089 469.708 992.239 540.861 992.014 583.564C991.789 626.267 994.277 638.363 1000.77 656.113C1007.25 673.864 1017.67 696.901 1026.48 714.211C1035.3 731.521 1042.2 742.406 1054.11 757.455C1066.03 772.504 1082.75 791.387 1100.16 808.541C1117.58 825.696 1135.18 840.55 1167.39 858.195C1199.61 875.84 1245.89 895.825 1276.09 907.934C1306.28 920.042 1318.99 923.668 1337.97 927.05C1356.95 930.432 1381.81 933.46 1404.61 935.02C1427.4 936.58 1447.37 936.58 1461.99 935.105C1485.57 932.726 1495.81 926.498 1499.8 924.052C1519.24 912.785 1542.57 897.454 1545.5 895.334C1546.81 894.193 1547.73 892.923 1549.71 889.522" stroke="url(#paint0_linear_287_7275)" stroke-width="5.14215" stroke-linejoin="round" stroke-dasharray="15.43 15.43"/>
<path d="M1288.72 484.126C1296.34 480.847 1305.07 479.762 1309.93 479.479C1310.04 479.499 1310.17 479.519 1310.3 479.537C1311.88 479.676 1313.35 479.823 1314.44 480.082C1316.49 480.921 1318.76 481.686 1320.83 483.408C1326.17 487.834 1333.81 495.282 1333.77 500.205C1333.73 506.343 1333.76 511.803 1329.48 516.863C1325.34 521.746 1319.19 529.37 1309.78 530.923C1304.07 531.865 1293.72 533.025 1288.8 529.144C1284.97 526.121 1279.41 522.862 1278.67 511.189C1278.15 502.987 1278.17 497.777 1278.8 496.072C1280.37 491.791 1282.06 486.994 1288.72 484.126Z" fill="#BDB7E9"/>
<path d="M1288.72 484.126C1296.34 480.847 1305.07 479.762 1309.93 479.479C1310.04 479.499 1310.17 479.519 1310.3 479.537C1311.88 479.676 1313.35 479.823 1314.44 480.082C1316.49 480.921 1318.76 481.686 1320.83 483.408C1326.17 487.834 1333.81 495.282 1333.77 500.205C1333.73 506.343 1333.76 511.803 1329.48 516.863C1325.34 521.746 1319.19 529.37 1309.78 530.923C1304.07 531.865 1293.72 533.025 1288.8 529.144C1284.97 526.121 1279.41 522.862 1278.67 511.189C1278.15 502.987 1278.17 497.777 1278.8 496.072C1280.37 491.791 1282.06 486.994 1288.72 484.126Z" fill="url(#paint1_linear_287_7275)"/>
<path d="M1532.98 861.217C1540.6 857.938 1549.33 856.853 1554.18 856.57C1554.3 856.59 1554.42 856.61 1554.56 856.628C1556.13 856.767 1557.6 856.914 1558.7 857.173C1560.74 858.012 1563.01 858.777 1565.09 860.499C1570.42 864.925 1578.06 872.373 1578.03 877.296C1577.98 883.434 1578.02 888.894 1573.73 893.954C1569.6 898.837 1563.45 906.461 1554.04 908.013C1548.32 908.956 1537.97 910.116 1533.05 906.235C1529.22 903.212 1523.66 899.953 1522.93 888.28C1522.41 880.078 1522.43 874.868 1523.05 873.163C1524.62 868.881 1526.31 864.085 1532.98 861.217Z" fill="#BDB7E9"/>
<path d="M1297.85 509.798C1297.85 510.737 1297.62 511.536 1297.17 512.196C1296.71 512.841 1296.06 513.34 1295.21 513.692C1294.37 514.044 1293.38 514.22 1292.24 514.22C1291.65 514.22 1291.09 514.191 1290.55 514.132C1290.02 514.073 1289.53 513.993 1289.09 513.89C1288.65 513.773 1288.27 513.633 1287.93 513.472V511.58C1288.46 511.815 1289.11 512.027 1289.89 512.218C1290.68 512.409 1291.49 512.504 1292.33 512.504C1293.11 512.504 1293.76 512.401 1294.29 512.196C1294.81 511.991 1295.21 511.697 1295.47 511.316C1295.74 510.935 1295.87 510.487 1295.87 509.974C1295.87 509.461 1295.76 509.028 1295.54 508.676C1295.32 508.324 1294.94 508.001 1294.4 507.708C1293.87 507.4 1293.13 507.077 1292.17 506.74C1291.5 506.491 1290.91 506.227 1290.39 505.948C1289.89 505.655 1289.48 505.325 1289.14 504.958C1288.8 504.591 1288.54 504.173 1288.37 503.704C1288.21 503.235 1288.13 502.692 1288.13 502.076C1288.13 501.24 1288.34 500.529 1288.76 499.942C1289.19 499.341 1289.78 498.879 1290.52 498.556C1291.29 498.233 1292.16 498.072 1293.14 498.072C1294.01 498.072 1294.8 498.153 1295.52 498.314C1296.24 498.475 1296.89 498.688 1297.48 498.952L1296.86 500.646C1296.32 500.411 1295.72 500.213 1295.08 500.052C1294.45 499.891 1293.79 499.81 1293.1 499.81C1292.44 499.81 1291.89 499.905 1291.45 500.096C1291.01 500.287 1290.68 500.558 1290.46 500.91C1290.24 501.247 1290.13 501.643 1290.13 502.098C1290.13 502.626 1290.24 503.066 1290.46 503.418C1290.68 503.77 1291.04 504.085 1291.54 504.364C1292.04 504.643 1292.71 504.943 1293.56 505.266C1294.48 505.603 1295.26 505.97 1295.89 506.366C1296.54 506.747 1297.02 507.209 1297.34 507.752C1297.68 508.295 1297.85 508.977 1297.85 509.798ZM1305.52 501.988C1306.54 501.988 1307.4 502.208 1308.12 502.648C1308.85 503.088 1309.41 503.711 1309.79 504.518C1310.19 505.31 1310.39 506.241 1310.39 507.312V508.478H1302.31C1302.34 509.813 1302.68 510.832 1303.32 511.536C1303.98 512.225 1304.9 512.57 1306.07 512.57C1306.82 512.57 1307.48 512.504 1308.05 512.372C1308.64 512.225 1309.24 512.02 1309.86 511.756V513.45C1309.26 513.714 1308.66 513.905 1308.08 514.022C1307.49 514.154 1306.79 514.22 1305.99 514.22C1304.87 514.22 1303.88 513.993 1303.02 513.538C1302.17 513.083 1301.5 512.409 1301.01 511.514C1300.55 510.605 1300.31 509.497 1300.31 508.192C1300.31 506.901 1300.52 505.794 1300.95 504.87C1301.39 503.946 1302 503.235 1302.77 502.736C1303.57 502.237 1304.48 501.988 1305.52 501.988ZM1305.5 503.572C1304.58 503.572 1303.85 503.873 1303.3 504.474C1302.77 505.061 1302.46 505.882 1302.36 506.938H1308.36C1308.36 506.263 1308.26 505.677 1308.05 505.178C1307.85 504.679 1307.53 504.291 1307.11 504.012C1306.7 503.719 1306.16 503.572 1305.5 503.572ZM1315.54 514H1313.61V497.28H1315.54V514ZM1324.93 503.704H1321.96V514H1320.03V503.704H1317.96V502.802L1320.03 502.142V501.46C1320.03 500.448 1320.18 499.627 1320.47 498.996C1320.78 498.365 1321.22 497.903 1321.79 497.61C1322.36 497.317 1323.05 497.17 1323.86 497.17C1324.33 497.17 1324.75 497.214 1325.13 497.302C1325.53 497.375 1325.87 497.463 1326.14 497.566L1325.64 499.084C1325.4 499.011 1325.13 498.937 1324.82 498.864C1324.52 498.791 1324.2 498.754 1323.88 498.754C1323.23 498.754 1322.75 498.974 1322.43 499.414C1322.12 499.839 1321.96 500.514 1321.96 501.438V502.208H1324.93V503.704Z" fill="#F3EFF7"/>
<defs>
<linearGradient id="paint0_linear_287_7275" x1="1015.19" y1="168.651" x2="1919.5" y2="433.802" gradientUnits="userSpaceOnUse">
<stop offset="0.0336539" stop-color="#6825A2"/>
<stop offset="0.416926" stop-color="#8552B2"/>
<stop offset="0.728176" stop-color="#BDB7E9"/>
</linearGradient>
<linearGradient id="paint1_linear_287_7275" x1="1277.48" y1="479.172" x2="1340.79" y2="500.436" gradientUnits="userSpaceOnUse">
<stop offset="0.0384615" stop-color="#410D6E"/>
<stop offset="0.307171" stop-color="#6825A2"/>
<stop offset="0.471389" stop-color="#8552B2"/>
<stop offset="0.947115" stop-color="#BDB7E9"/>
</linearGradient>
</defs>
</svg>
