<svg width="974" height="986" viewBox="0 0 974 986" fill="none" xmlns="http://www.w3.org/2000/svg">
<path d="M413.023 450.04C408.497 447.865 395.567 441.821 384.868 441.653C382.708 441.619 381.782 443.659 381.171 445.109C379.978 447.94 380.235 451.648 380.832 455.263C382.277 464.018 396.689 468.325 404.014 470.611C410.77 472.72 417.356 469.887 420.888 467.957C427.073 464.576 431.062 457.912 432.768 450.784C434.046 445.447 432.287 440.711 430.859 437.93C427.594 431.571 417.296 427.525 406.761 425.266C394.403 422.616 384.183 425.082 380.55 426.328C373.06 428.898 367.363 438.225 362.416 448.686C359.5 454.852 359.516 465.113 360.354 475.873C360.923 483.177 366.605 486.883 371.809 490.344C390.537 502.801 424.683 501.36 440.636 496.985C449.801 494.472 454.75 486.713 457.663 482.322C466.167 469.504 459.554 449.148 454.264 437.329C450.204 428.261 442.725 418.323 434.148 408.994C427.367 401.618 402.68 402.61 377.956 410.023C358.937 415.725 350.207 431.326 336.225 451.889C330.835 459.817 330.839 467.291 330.689 493.901C330.649 501.127 333.23 504.209 337.669 510.254C346.636 522.463 368.474 538.382 395.496 552.805C415.16 563.301 431.729 561.569 441.671 561.204C456.988 560.642 481.514 537.905 497.725 513.433C503.738 504.356 503.291 496.273 503.995 487.758C507.073 450.533 491.175 423.598 486.132 416.021C484.126 413.006 476.085 401.567 461.941 383.835C440.978 357.553 423.712 353.61 412.051 350.312C392.3 344.727 379.425 349.119 367.155 355.33C360.809 358.542 351.37 365.731 340.901 374.561C330.432 383.391 319.562 394.251 309.524 406.016C289.636 429.326 277.922 449.641 272.192 461.042C266.821 471.728 266.066 485.425 267.045 521.817C267.498 538.633 280.212 554.197 292.387 571.168C298.381 579.524 306.1 585.753 317.111 593.384C328.122 601.015 342.728 609.449 356.722 615.992C370.717 622.535 383.658 626.932 412.433 630.609C441.209 634.287 485.427 637.112 509.915 638.424C544.713 640.289 562.794 632.336 576.346 625.299C590.888 617.749 603.516 597.726 610.811 570.877C614.556 557.093 613.51 533.589 611.18 510.961C608.85 488.332 603.063 466.869 594.077 442.471C585.092 418.073 573.084 391.391 563.367 372.49C547.964 342.529 535.812 328.897 527.604 320.557C517.479 310.27 502.473 299.889 486.84 290.791C475.196 284.014 463.439 281.491 443.547 279.301C429.675 277.774 407.897 278.195 390.492 280.347C373.087 282.499 360.656 287.083 349.61 291.914C338.563 296.744 329.28 301.682 318.603 308.807C307.926 315.932 296.138 325.096 282.74 338.888C269.342 352.681 254.693 370.826 244.242 384.955C233.791 399.084 227.981 408.648 220.448 425.074C212.915 441.501 203.835 464.5 198.544 480.485C193.252 496.47 192.025 504.744 191.535 517.393C191.045 530.042 191.329 546.816 194.415 561.472C197.501 576.129 203.379 588.161 212.649 602.259C221.919 616.358 234.402 632.159 247.599 645.671C260.796 659.182 274.329 669.926 287.233 678.789C300.137 687.652 312.003 694.31 327.057 701.138C342.111 707.966 359.993 714.762 379.209 719.912C398.425 725.062 418.432 728.36 448.519 730.27C478.605 732.181 518.166 732.603 545.261 731.311C572.357 730.019 585.789 727.001 598.618 722.383C623.916 713.275 643.044 699.71 659.332 685.791C679.419 668.625 691.283 648.936 698.131 636.946C703.413 627.698 708.476 612.448 714.709 588.969C718.031 576.456 718.961 562.085 719.253 535.326C719.544 508.566 718.475 469.688 715.601 439.094C712.726 408.501 708.078 387.369 703.007 369.794C697.936 352.219 692.582 338.84 682.326 320.909C672.07 302.979 657.073 280.903 641.521 264.722C625.969 248.541 610.316 238.924 575.511 232.979C540.706 227.035 487.225 225.054 448.722 226.722C410.22 228.389 388.317 233.765 363.379 242.672C338.441 251.579 311.131 263.855 284.856 279.856C258.581 295.856 234.169 315.208 215.898 332.291C197.627 349.375 186.237 363.604 177.313 376.986C160.898 401.602 153.159 423.709 147.863 445.295C144.753 457.971 143.352 474.705 142.302 495.502C141.253 516.298 141.253 540.795 143.637 560.177C147.748 593.6 157.893 611.09 167.673 625.2C186.502 652.365 205.092 671.085 214.73 679.883C228.525 692.475 247.323 704.123 278.744 717.843C300.158 727.193 334.466 736.98 374.928 746.283C415.39 755.585 461.425 762.979 505.068 767.441C548.711 771.902 588.567 773.208 616.49 770.972C644.414 768.736 659.197 762.919 670.437 757.343C681.676 751.767 688.924 746.608 695.86 740.418C702.797 734.229 709.202 727.165 729.356 691.206C749.511 655.247 783.22 590.608 804.739 546.066C826.258 501.524 834.565 479.037 840.785 455.871C847.006 432.705 850.888 409.542 853.229 386.385C855.571 363.228 856.253 340.778 855.921 323.455C855.589 306.132 854.222 294.616 851.026 282.99C844.553 259.441 830.88 239.361 813.011 219.315C802.566 207.599 786.943 194.987 766.113 180.901C745.283 166.816 719.112 152.212 689.727 139.878C660.341 127.543 628.536 117.92 599.699 111.055C570.863 104.189 545.96 100.372 501.694 98.3894C457.428 96.4072 394.555 96.3756 347.492 99.4092C300.428 102.443 271.081 108.542 250.553 113.776C218.837 121.863 201.748 131.664 187.848 141.658C170.832 153.891 156.759 170.671 142.397 194.907C133.145 210.521 123.068 234.637 114.348 262.1C105.628 289.564 99.3785 320.097 94.7338 371.403C90.0891 422.708 87.2385 493.861 87.0139 536.564C86.7892 579.267 89.2768 591.363 95.7651 609.113C102.254 626.864 112.667 649.901 121.482 667.211C130.297 684.521 137.198 695.406 149.113 710.455C161.028 725.504 177.748 744.387 195.164 761.541C212.58 778.696 230.184 793.55 262.395 811.195C294.605 828.84 340.888 848.825 371.085 860.934C401.282 873.042 413.99 876.668 432.97 880.05C451.949 883.432 476.815 886.46 499.607 888.02C522.4 889.58 542.365 889.58 556.986 888.105C580.573 885.726 590.808 879.498 594.8 877.052C614.239 865.785 637.567 850.454 640.504 848.334C641.806 847.193 642.726 845.923 644.713 842.522" stroke="#BDB7E9" stroke-width="5.14215" stroke-linejoin="round" stroke-dasharray="15.43 15.43"/>
<path d="M413.023 450.04C408.497 447.865 395.567 441.821 384.868 441.653C382.708 441.619 381.782 443.659 381.171 445.109C379.978 447.94 380.235 451.648 380.832 455.263C382.277 464.018 396.689 468.325 404.014 470.611C410.77 472.72 417.356 469.887 420.888 467.957C427.073 464.576 431.062 457.912 432.768 450.784C434.046 445.447 432.287 440.711 430.859 437.93C427.594 431.571 417.296 427.525 406.761 425.266C394.403 422.616 384.183 425.082 380.55 426.328C373.06 428.898 367.363 438.225 362.416 448.686C359.5 454.852 359.516 465.113 360.354 475.873C360.923 483.177 366.605 486.883 371.809 490.344C390.537 502.801 424.683 501.36 440.636 496.985C449.801 494.472 454.75 486.713 457.663 482.322C466.167 469.504 459.554 449.148 454.264 437.329C450.204 428.261 442.725 418.323 434.148 408.994C427.367 401.618 402.68 402.61 377.956 410.023C358.937 415.725 350.207 431.326 336.225 451.889C330.835 459.817 330.839 467.291 330.689 493.901C330.649 501.127 333.23 504.209 337.669 510.254C346.636 522.463 368.474 538.382 395.496 552.805C415.16 563.301 431.729 561.569 441.671 561.204C456.988 560.642 481.514 537.905 497.725 513.433C503.738 504.356 503.291 496.273 503.995 487.758C507.073 450.533 491.175 423.598 486.132 416.021C484.126 413.006 476.085 401.567 461.941 383.835C440.978 357.553 423.712 353.61 412.051 350.312C392.3 344.727 379.425 349.119 367.155 355.33C360.809 358.542 351.37 365.731 340.901 374.561C330.432 383.391 319.562 394.251 309.524 406.016C289.636 429.326 277.922 449.641 272.192 461.042C266.821 471.728 266.066 485.425 267.045 521.817C267.498 538.633 280.212 554.197 292.387 571.168C298.381 579.524 306.1 585.753 317.111 593.384C328.122 601.015 342.728 609.449 356.722 615.992C370.717 622.535 383.658 626.932 412.433 630.609C441.209 634.287 485.427 637.112 509.915 638.424C544.713 640.289 562.794 632.336 576.346 625.299C590.888 617.749 603.516 597.726 610.811 570.877C614.556 557.093 613.51 533.589 611.18 510.961C608.85 488.332 603.063 466.869 594.077 442.471C585.092 418.073 573.084 391.391 563.367 372.49C547.964 342.529 535.812 328.897 527.604 320.557C517.479 310.27 502.473 299.889 486.84 290.791C475.196 284.014 463.439 281.491 443.547 279.301C429.675 277.774 407.897 278.195 390.492 280.347C373.087 282.499 360.656 287.083 349.61 291.914C338.563 296.744 329.28 301.682 318.603 308.807C307.926 315.932 296.138 325.096 282.74 338.888C269.342 352.681 254.693 370.826 244.242 384.955C233.791 399.084 227.981 408.648 220.448 425.074C212.915 441.501 203.835 464.5 198.544 480.485C193.252 496.47 192.025 504.744 191.535 517.393C191.045 530.042 191.329 546.816 194.415 561.472C197.501 576.129 203.379 588.161 212.649 602.259C221.919 616.358 234.402 632.159 247.599 645.671C260.796 659.182 274.329 669.926 287.233 678.789C300.137 687.652 312.003 694.31 327.057 701.138C342.111 707.966 359.993 714.762 379.209 719.912C398.425 725.062 418.432 728.36 448.519 730.27C478.605 732.181 518.166 732.603 545.261 731.311C572.357 730.019 585.789 727.001 598.618 722.383C623.916 713.275 643.044 699.71 659.332 685.791C679.419 668.625 691.283 648.936 698.131 636.946C703.413 627.698 708.476 612.448 714.709 588.969C718.031 576.456 718.961 562.085 719.253 535.326C719.544 508.566 718.475 469.688 715.601 439.094C712.726 408.501 708.078 387.369 703.007 369.794C697.936 352.219 692.582 338.84 682.326 320.909C672.07 302.979 657.073 280.903 641.521 264.722C625.969 248.541 610.316 238.924 575.511 232.979C540.706 227.035 487.225 225.054 448.722 226.722C410.22 228.389 388.317 233.765 363.379 242.672C338.441 251.579 311.131 263.855 284.856 279.856C258.581 295.856 234.169 315.208 215.898 332.291C197.627 349.375 186.237 363.604 177.313 376.986C160.898 401.602 153.159 423.709 147.863 445.295C144.753 457.971 143.352 474.705 142.302 495.502C141.253 516.298 141.253 540.795 143.637 560.177C147.748 593.6 157.893 611.09 167.673 625.2C186.502 652.365 205.092 671.085 214.73 679.883C228.525 692.475 247.323 704.123 278.744 717.843C300.158 727.193 334.466 736.98 374.928 746.283C415.39 755.585 461.425 762.979 505.068 767.441C548.711 771.902 588.567 773.208 616.49 770.972C644.414 768.736 659.197 762.919 670.437 757.343C681.676 751.767 688.924 746.608 695.86 740.418C702.797 734.229 709.202 727.165 729.356 691.206C749.511 655.247 783.22 590.608 804.739 546.066C826.258 501.524 834.565 479.037 840.785 455.871C847.006 432.705 850.888 409.542 853.229 386.385C855.571 363.228 856.253 340.778 855.921 323.455C855.589 306.132 854.222 294.616 851.026 282.99C844.553 259.441 830.88 239.361 813.011 219.315C802.566 207.599 786.943 194.987 766.113 180.901C745.283 166.816 719.112 152.212 689.727 139.878C660.341 127.543 628.536 117.92 599.699 111.055C570.863 104.189 545.96 100.372 501.694 98.3894C457.428 96.4072 394.555 96.3756 347.492 99.4092C300.428 102.443 271.081 108.542 250.553 113.776C218.837 121.863 201.748 131.664 187.848 141.658C170.832 153.891 156.759 170.671 142.397 194.907C133.145 210.521 123.068 234.637 114.348 262.1C105.628 289.564 99.3785 320.097 94.7338 371.403C90.0891 422.708 87.2385 493.861 87.0139 536.564C86.7892 579.267 89.2768 591.363 95.7651 609.113C102.254 626.864 112.667 649.901 121.482 667.211C130.297 684.521 137.198 695.406 149.113 710.455C161.028 725.504 177.748 744.387 195.164 761.541C212.58 778.696 230.184 793.55 262.395 811.195C294.605 828.84 340.888 848.825 371.085 860.934C401.282 873.042 413.99 876.668 432.97 880.05C451.949 883.432 476.815 886.46 499.607 888.02C522.4 889.58 542.365 889.58 556.986 888.105C580.573 885.726 590.808 879.498 594.8 877.052C614.239 865.785 637.567 850.454 640.504 848.334C641.806 847.193 642.726 845.923 644.713 842.522" stroke="url(#paint0_linear_287_7275)" stroke-width="5.14215" stroke-linejoin="round" stroke-dasharray="15.43 15.43"/>
<path d="M383.723 437.126C391.342 433.847 400.073 432.762 404.925 432.479C405.045 432.499 405.171 432.519 405.305 432.537C406.881 432.676 408.35 432.823 409.442 433.082C411.485 433.921 413.758 434.686 415.833 436.408C421.165 440.834 428.811 448.282 428.775 453.205C428.73 459.343 428.764 464.803 424.479 469.863C420.344 474.746 414.194 482.37 404.784 483.923C399.071 484.865 388.716 486.025 383.8 482.144C379.971 479.121 374.411 475.862 373.672 464.189C373.153 455.987 373.174 450.777 373.798 449.072C375.366 444.791 377.058 439.994 383.723 437.126Z" fill="#BDB7E9"/>
<path d="M383.723 437.126C391.342 433.847 400.073 432.762 404.925 432.479C405.045 432.499 405.171 432.519 405.305 432.537C406.881 432.676 408.35 432.823 409.442 433.082C411.485 433.921 413.758 434.686 415.833 436.408C421.165 440.834 428.811 448.282 428.775 453.205C428.73 459.343 428.764 464.803 424.479 469.863C420.344 474.746 414.194 482.37 404.784 483.923C399.071 484.865 388.716 486.025 383.8 482.144C379.971 479.121 374.411 475.862 373.672 464.189C373.153 455.987 373.174 450.777 373.798 449.072C375.366 444.791 377.058 439.994 383.723 437.126Z" fill="url(#paint1_linear_287_7275)"/>
<path d="M627.977 814.217C635.595 810.938 644.326 809.853 649.179 809.57C649.299 809.59 649.425 809.61 649.559 809.628C651.135 809.767 652.604 809.914 653.695 810.173C655.739 811.012 658.012 811.777 660.087 813.499C665.419 817.925 673.065 825.373 673.029 830.296C672.984 836.434 673.018 841.894 668.733 846.954C664.598 851.837 658.448 859.461 649.038 861.013C643.325 861.956 632.97 863.116 628.054 859.235C624.225 856.212 618.665 852.953 617.926 841.28C617.407 833.078 617.428 827.868 618.052 826.163C619.62 821.881 621.312 817.085 627.977 814.217Z" fill="#BDB7E9"/>
<path d="M392.851 462.798C392.851 463.737 392.623 464.536 392.169 465.196C391.714 465.841 391.061 466.34 390.211 466.692C389.375 467.044 388.385 467.22 387.241 467.22C386.654 467.22 386.089 467.191 385.547 467.132C385.019 467.073 384.535 466.993 384.095 466.89C383.655 466.773 383.266 466.633 382.929 466.472V464.58C383.457 464.815 384.109 465.027 384.887 465.218C385.679 465.409 386.493 465.504 387.329 465.504C388.106 465.504 388.759 465.401 389.287 465.196C389.815 464.991 390.211 464.697 390.475 464.316C390.739 463.935 390.871 463.487 390.871 462.974C390.871 462.461 390.761 462.028 390.541 461.676C390.321 461.324 389.939 461.001 389.397 460.708C388.869 460.4 388.128 460.077 387.175 459.74C386.5 459.491 385.906 459.227 385.393 458.948C384.894 458.655 384.476 458.325 384.139 457.958C383.801 457.591 383.545 457.173 383.369 456.704C383.207 456.235 383.127 455.692 383.127 455.076C383.127 454.24 383.339 453.529 383.765 452.942C384.19 452.341 384.777 451.879 385.525 451.556C386.287 451.233 387.16 451.072 388.143 451.072C389.008 451.072 389.8 451.153 390.519 451.314C391.237 451.475 391.89 451.688 392.477 451.952L391.861 453.646C391.318 453.411 390.724 453.213 390.079 453.052C389.448 452.891 388.788 452.81 388.099 452.81C387.439 452.81 386.889 452.905 386.449 453.096C386.009 453.287 385.679 453.558 385.459 453.91C385.239 454.247 385.129 454.643 385.129 455.098C385.129 455.626 385.239 456.066 385.459 456.418C385.679 456.77 386.038 457.085 386.537 457.364C387.035 457.643 387.71 457.943 388.561 458.266C389.485 458.603 390.262 458.97 390.893 459.366C391.538 459.747 392.022 460.209 392.345 460.752C392.682 461.295 392.851 461.977 392.851 462.798ZM400.525 454.988C401.537 454.988 402.402 455.208 403.121 455.648C403.854 456.088 404.412 456.711 404.793 457.518C405.189 458.31 405.387 459.241 405.387 460.312V461.478H397.313C397.342 462.813 397.68 463.832 398.325 464.536C398.985 465.225 399.902 465.57 401.075 465.57C401.823 465.57 402.483 465.504 403.055 465.372C403.642 465.225 404.243 465.02 404.859 464.756V466.45C404.258 466.714 403.664 466.905 403.077 467.022C402.49 467.154 401.794 467.22 400.987 467.22C399.872 467.22 398.882 466.993 398.017 466.538C397.166 466.083 396.499 465.409 396.015 464.514C395.546 463.605 395.311 462.497 395.311 461.192C395.311 459.901 395.524 458.794 395.949 457.87C396.389 456.946 396.998 456.235 397.775 455.736C398.567 455.237 399.484 454.988 400.525 454.988ZM400.503 456.572C399.579 456.572 398.846 456.873 398.303 457.474C397.775 458.061 397.46 458.882 397.357 459.938H403.363C403.363 459.263 403.26 458.677 403.055 458.178C402.85 457.679 402.534 457.291 402.109 457.012C401.698 456.719 401.163 456.572 400.503 456.572ZM410.545 467H408.609V450.28H410.545V467ZM419.935 456.704H416.965V467H415.029V456.704H412.961V455.802L415.029 455.142V454.46C415.029 453.448 415.175 452.627 415.469 451.996C415.777 451.365 416.217 450.903 416.789 450.61C417.361 450.317 418.05 450.17 418.857 450.17C419.326 450.17 419.751 450.214 420.133 450.302C420.529 450.375 420.866 450.463 421.145 450.566L420.639 452.084C420.404 452.011 420.133 451.937 419.825 451.864C419.517 451.791 419.201 451.754 418.879 451.754C418.233 451.754 417.749 451.974 417.427 452.414C417.119 452.839 416.965 453.514 416.965 454.438V455.208H419.935V456.704Z" fill="#F3EFF7"/>
<defs>
<linearGradient id="paint0_linear_287_7275" x1="110.193" y1="121.651" x2="1014.5" y2="386.802" gradientUnits="userSpaceOnUse">
<stop offset="0.0336539" stop-color="#6825A2"/>
<stop offset="0.416926" stop-color="#8552B2"/>
<stop offset="0.728176" stop-color="#BDB7E9"/>
</linearGradient>
<linearGradient id="paint1_linear_287_7275" x1="372.479" y1="432.172" x2="435.794" y2="453.436" gradientUnits="userSpaceOnUse">
<stop offset="0.0384615" stop-color="#410D6E"/>
<stop offset="0.307171" stop-color="#6825A2"/>
<stop offset="0.471389" stop-color="#8552B2"/>
<stop offset="0.947115" stop-color="#BDB7E9"/>
</linearGradient>
</defs>
</svg>
