<svg width="1071" height="948" viewBox="0 0 1071 948" fill="none" xmlns="http://www.w3.org/2000/svg">
<path d="M605 445.5H544.5L506.5 439.5L470 428L426.5 404L394 377.5L368.5 352L346.5 325L456 328L569.5 341L590 346.5L488 442.671M488 442.671L485 445.5L437 496L410.5 532.5L399 558V577L406.5 593L440 608.5L466.5 612.5H496.5L569.5 599L628 577L678.5 552L702.5 521.5L712.5 489.5V458L700 437L664.5 416.5L605 400.5L547.5 396H513.5L499 414L488 442.671ZM474 489.5L459.5 517L437 542L410.5 558H384L368.5 542L354 496L346.5 433V396L354 380.5L379 377.5H426.5L456 383.5L544.5 414L653 458L688.5 462.5L721.5 458L730 428L724.5 396L712.5 371L668 341L624.5 325L565 317.5H529L496.5 325L459.5 365L437 400.5L431.5 437L437 483.5L444.5 521.5L466.5 558L488 599L499 630.5V650L488 667.5L474 677H415L364 650L323.5 619L278 565.5L242 517L224.5 469L208 396L204.5 328L216.5 274L230.5 243L270 196.5L319.5 170.5L368.5 158L401.5 156L426.5 177.5L480.5 243L521 305.5L565 383.5L583.5 458L573 506L533.5 558L506.5 602L488 630.5L485 658L490.5 679.5L521 695.5H565L590 689.5L673 577L745 423L750 404V380.5L745 341L717 302.5L678.5 271L647.5 256H605L556.5 274L533.5 296L496.5 357L474 400.5L459.5 466L450.5 510L448 563.5L450.5 602L466.5 635.5L478.5 660L470 667.5L343.5 619L247.5 581.5L136.5 532.5L112 506L117.5 466L139.5 445.5L180.5 428L237 411L278 400.5L319.5 396L647.5 371L702.5 377.5L736.5 383.5L766 396L780.5 407.5L796.5 404V380.5L789.5 341L766 310.5L657.5 230L593.5 196.5L513.5 170.5L440 163.5L401.5 177.5L379 196.5L364 234L343.5 310.5L327 383.5V428L339 458L387 489.5L521 558L569.5 577L608.5 608.5L636.5 650L657.5 692.18L647.5 732L593.5 754.5L521 762L421.5 754.5L364 706L339 667.5V644L349.5 581.5L379 513.5L415 466L450.5 428L503 387.5L539.5 360.5L590 328L620 305.5L647.5 286L653 277V268L641.5 274L615.5 296L597 310.5L577.5 352V387.5L593.5 423L657.5 474L730 528L834.5 602L887.5 650L892.5 667.5L887.5 685L860 689.5L810.5 685L771 677L712.5 638.5L678.5 589.5L664.5 528L668 493L694.5 445.5L771 336L808.5 288L846 263L871.5 268L885 284L887.5 310.5L885 336L874.5 365L867.5 416.5L882 496L907.5 563.5L928.5 644L954.5 706L960 758.5L940.5 783L885 791.5L796.5 750L736.5 695.5L705.5 658L688.5 615.5" stroke="black" stroke-width="10"/>
</svg>
