<svg width="1920" height="1080" viewBox="0 0 1920 1080" fill="none" xmlns="http://www.w3.org/2000/svg">
<g clip-path="url(#clip0_287_7286)">
<path d="M1363.04 244.159C1355.24 277.468 1354.31 310.86 1354.24 327.173C1350.24 325.757 1348.37 325.011 1346.49 324.367C1344.16 323.568 1341.87 322.943 1339.04 321.863C1327.2 316.883 1317.17 310.518 1301.63 310.743C1264.26 311.285 1248.23 308.727 1242.35 319.832C1239.75 324.735 1238.38 330.019 1240.23 334.349C1242.09 338.676 1244.57 342.964 1249.54 346.426C1264.35 356.742 1279.4 364.967 1300.46 372.588C1323.02 380.749 1354.09 382.914 1357.75 398.084C1359.07 403.556 1354.34 411.239 1354.08 433.365C1353.53 479.889 1352.95 511.921 1354.81 516.631C1355.79 519.098 1357.66 522.362 1359.64 521.967C1363.55 521.19 1366.65 512.677 1404.74 462.062C1432.53 425.131 1444.61 399.789 1457.92 397.958C1460.72 397.573 1463.08 398.289 1465.57 400.114C1468.07 401.94 1470.98 404.58 1473.19 408.796C1482.31 426.222 1492.51 440.034 1510.07 474.295C1517.21 488.243 1521.9 501.469 1531.76 503.854C1534.33 504.475 1537.42 504.253 1540.06 503.296C1542.69 502.34 1545.5 500.732 1545.56 492.168C1545.72 468.671 1546.79 437.79 1537.97 415.332C1529.84 394.658 1515.47 388.625 1513.38 377.8C1512.4 372.701 1511.87 366.511 1514.95 362.253C1520.61 354.428 1527.99 347.8 1538.28 342.485C1554.68 334.012 1630.24 301.749 1612.78 281.685C1610.23 278.756 1591.02 276.934 1565.09 278.439C1545.3 279.588 1494.16 307.742 1461.64 290.276C1451.19 284.669 1444.4 276.6 1439.17 266.774C1432.54 254.292 1426.44 240.738 1412.93 231.359C1401.16 223.192 1392.13 206.676 1382.08 209.274C1376.22 210.788 1368.08 222.614 1363.04 244.159Z" fill="#BDB7E9"/>
<path d="M1354.24 329.211C1354.24 313.776 1354.9 278.922 1363.04 244.159C1368.08 222.614 1376.22 210.788 1382.08 209.274C1392.13 206.676 1401.16 223.192 1412.93 231.359C1426.44 240.738 1432.54 254.292 1439.17 266.774C1444.4 276.6 1451.19 284.669 1461.64 290.276C1494.16 307.742 1545.3 279.588 1565.09 278.439C1591.02 276.934 1610.23 278.756 1612.78 281.685C1630.24 301.749 1554.68 334.012 1538.28 342.485C1527.99 347.8 1520.61 354.428 1514.95 362.253C1511.87 366.511 1512.4 372.701 1513.38 377.8C1515.47 388.625 1529.84 394.658 1537.97 415.332C1546.79 437.79 1545.72 468.671 1545.56 492.168C1545.5 500.732 1542.69 502.34 1540.06 503.296C1537.42 504.253 1534.33 504.475 1531.76 503.854C1521.9 501.469 1517.21 488.244 1510.07 474.295C1492.51 440.034 1482.31 426.222 1473.19 408.796C1470.98 404.58 1468.07 401.94 1465.57 400.114C1463.08 398.289 1460.72 397.573 1457.92 397.958C1444.61 399.789 1432.53 425.131 1404.74 462.062C1366.65 512.677 1363.55 521.19 1359.64 521.967C1357.66 522.362 1355.79 519.098 1354.81 516.631C1352.95 511.921 1353.53 479.889 1354.08 433.365C1354.34 411.239 1359.07 403.556 1357.75 398.084C1354.09 382.914 1323.02 380.749 1300.46 372.588C1279.4 364.967 1264.35 356.742 1249.54 346.426C1244.57 342.964 1242.09 338.676 1240.23 334.349C1238.38 330.019 1239.75 324.735 1242.35 319.832C1248.23 308.727 1264.26 311.285 1301.63 310.743C1317.17 310.518 1327.2 316.883 1339.04 321.863C1341.87 322.943 1344.16 323.568 1346.49 324.367C1348.83 325.167 1351.13 326.123 1357.55 328.325" stroke="#BDB7E9" stroke-width="5" stroke-linecap="round"/>
<path d="M1354.24 329.211C1354.24 313.776 1354.9 278.922 1363.04 244.159C1368.08 222.614 1376.22 210.788 1382.08 209.274C1392.13 206.676 1401.16 223.192 1412.93 231.359C1426.44 240.738 1432.54 254.292 1439.17 266.774C1444.4 276.6 1451.19 284.669 1461.64 290.276C1494.16 307.742 1545.3 279.588 1565.09 278.439C1591.02 276.934 1610.23 278.756 1612.78 281.685C1630.24 301.749 1554.68 334.012 1538.28 342.485C1527.99 347.8 1520.61 354.428 1514.95 362.253C1511.87 366.511 1512.4 372.701 1513.38 377.8C1515.47 388.625 1529.84 394.658 1537.97 415.332C1546.79 437.79 1545.72 468.671 1545.56 492.168C1545.5 500.732 1542.69 502.34 1540.06 503.296C1537.42 504.253 1534.33 504.475 1531.76 503.854C1521.9 501.469 1517.21 488.244 1510.07 474.295C1492.51 440.034 1482.31 426.222 1473.19 408.796C1470.98 404.58 1468.07 401.94 1465.57 400.114C1463.08 398.289 1460.72 397.573 1457.92 397.958C1444.61 399.789 1432.53 425.131 1404.74 462.062C1366.65 512.677 1363.55 521.19 1359.64 521.967C1357.66 522.362 1355.79 519.098 1354.81 516.631C1352.95 511.921 1353.53 479.889 1354.08 433.365C1354.34 411.239 1359.07 403.556 1357.75 398.084C1354.09 382.914 1323.02 380.749 1300.46 372.588C1279.4 364.967 1264.35 356.742 1249.54 346.426C1244.57 342.964 1242.09 338.676 1240.23 334.349C1238.38 330.019 1239.75 324.735 1242.35 319.832C1248.23 308.727 1264.26 311.285 1301.63 310.743C1317.17 310.518 1327.2 316.883 1339.04 321.863C1341.87 322.943 1344.16 323.568 1346.49 324.367C1348.83 325.167 1351.13 326.123 1357.55 328.325" stroke="url(#paint0_linear_287_7286)" stroke-width="5" stroke-linecap="round"/>
<path d="M740.244 249.683C786.202 220.303 807.595 217.541 817.688 217.541C825.188 217.541 829.414 219.295 832.688 219.975C839.246 221.194 836.114 221.37 842.909 223.069C858.095 226.351 872.292 227.821 884.721 235.631C896.636 243.12 906.81 254.587 918.238 265.113C933.449 279.125 971.076 292.815 981.912 336.959C988.68 364.528 989.11 416.967 977.589 442.317C964.514 471.083 948.336 493.925 934.57 501.764C909.563 516.003 874.161 539.423 815.773 532.085L815.35 532.032C771.715 526.548 715.473 519.48 688.91 484.532C672.805 463.344 646.511 425.856 667.455 356.785C677.73 322.897 691.474 280.861 740.244 249.683Z" fill="#BDB7E9"/>
<path d="M740.244 249.683C786.202 220.303 807.595 217.541 817.688 217.541C825.188 217.541 829.414 219.295 832.688 219.975C839.246 221.194 836.114 221.37 842.909 223.069C858.095 226.351 872.292 227.821 884.721 235.631C896.636 243.12 906.81 254.587 918.238 265.113C933.449 279.125 971.076 292.815 981.912 336.959C988.68 364.528 989.11 416.967 977.589 442.317C964.514 471.083 948.336 493.925 934.57 501.764C909.563 516.003 874.161 539.423 815.773 532.085L815.35 532.032C771.715 526.548 715.473 519.48 688.91 484.532C672.805 463.344 646.511 425.856 667.455 356.785C677.73 322.897 691.474 280.861 740.244 249.683Z" stroke="#BDB7E9" stroke-width="4"/>
<path d="M740.244 249.683C786.202 220.303 807.595 217.541 817.688 217.541C825.188 217.541 829.414 219.295 832.688 219.975C839.246 221.194 836.114 221.37 842.909 223.069C858.095 226.351 872.292 227.821 884.721 235.631C896.636 243.12 906.81 254.587 918.238 265.113C933.449 279.125 971.076 292.815 981.912 336.959C988.68 364.528 989.11 416.967 977.589 442.317C964.514 471.083 948.336 493.925 934.57 501.764C909.563 516.003 874.161 539.423 815.773 532.085L815.35 532.032C771.715 526.548 715.473 519.48 688.91 484.532C672.805 463.344 646.511 425.856 667.455 356.785C677.73 322.897 691.474 280.861 740.244 249.683Z" stroke="url(#paint1_linear_287_7286)" stroke-width="4"/>
<path d="M25.2543 384.768C31.3802 389.095 37.4085 392.765 41.7862 395.242C40.0597 395.323 38.4695 395.412 37.0933 395.517C27.6736 397.463 16.8409 406.411 7.25196 416.214C2.14282 423.015 -3.7969 442.117 3.18503 453.389C7.50135 460.357 18.1183 470.565 29.0122 475.453C43.1719 481.807 53.5912 488.211 80.1969 484.841C92.6901 483.259 105.89 478.958 127.611 462.257C137.242 454.852 144.114 444.866 153.978 439.355C156.158 438.137 158.667 437.265 159.818 438.872C166.824 448.658 187.278 470.657 201.195 479.568C210.294 485.394 238.224 497.792 253.553 503.523C260.358 506.068 286.513 513.875 303.633 501.143C310.222 496.243 317.333 492.44 325.48 476.25C334.399 458.527 332.578 442.43 344.219 440.966C355.427 439.556 370.046 440.156 378.103 434.372L378.18 434.317C381.403 432.004 386.661 428.23 388.111 421.748C390.692 410.217 391.137 394.397 386.181 386.998C383.887 383.573 377.162 374.681 362.649 368.303C340.448 358.547 332.634 360.513 296.799 355.689C290.388 354.826 291.174 353.281 291.567 350.084C291.96 346.887 292.523 342.078 291.473 337.973C287.875 323.911 283.135 311.982 275.273 306.874C267.404 301.761 256.528 293.979 228.049 298.27C204.193 301.864 173.68 317.546 159.762 318.694C157.84 318.852 155.92 318.322 154.68 316.284C151.812 311.572 149.7 306.726 147.752 303.294C143.628 296.028 138.277 284.752 129.142 285.243C107.467 286.408 91.9033 289.678 86.2248 296.731C78.3647 306.494 74.6872 327.706 66.3773 328.035C65.0776 328.087 63.4956 326.364 61.6333 325.158C54.358 320.447 36.3958 313.954 23.9065 321.341C19.1545 324.152 15.1514 327.013 12.6927 330.294C10.284 333.508 7.77731 342.188 9.2838 353.262C10.9053 365.182 14.019 376.833 25.2543 384.768Z" fill="#BDB7E9"/>
<path d="M48.096 398.537C46.0411 397.712 35.792 392.211 25.2543 384.768C14.019 376.833 10.9053 365.182 9.2838 353.262C7.77731 342.188 10.284 333.508 12.6927 330.294C15.1514 327.013 19.1545 324.152 23.9065 321.341C36.3958 313.954 54.358 320.447 61.6333 325.158C63.4956 326.364 65.0776 328.087 66.3773 328.035C74.6872 327.706 78.3647 306.494 86.2248 296.731C91.9033 289.678 107.467 286.408 129.142 285.243C138.277 284.752 143.628 296.028 147.752 303.294C149.7 306.726 151.812 311.572 154.68 316.284C155.92 318.322 157.84 318.852 159.762 318.694C173.68 317.546 204.193 301.864 228.049 298.27C256.528 293.979 267.404 301.761 275.273 306.874C283.135 311.982 287.875 323.911 291.473 337.973C292.523 342.078 291.959 346.887 291.567 350.084C291.174 353.281 290.388 354.826 296.799 355.689C332.634 360.513 340.448 358.547 362.649 368.303C377.162 374.681 383.887 383.573 386.181 386.998C391.137 394.397 390.692 410.217 388.111 421.748C386.649 428.282 381.318 432.065 378.103 434.372C370.046 440.156 355.427 439.556 344.219 440.966C332.578 442.43 334.399 458.527 325.48 476.25C317.333 492.44 310.222 496.243 303.633 501.143C286.513 513.875 260.358 506.068 253.553 503.523C238.224 497.792 210.294 485.394 201.195 479.568C187.278 470.657 166.824 448.658 159.818 438.872C158.667 437.265 156.158 438.137 153.978 439.355C144.114 444.866 137.242 454.852 127.611 462.257C105.89 478.958 92.6901 483.259 80.1969 484.841C53.5912 488.211 43.1719 481.807 29.0122 475.453C18.1183 470.565 7.50135 460.357 3.18503 453.389C-3.7969 442.117 2.14282 423.015 7.25196 416.214C16.8409 406.411 27.6736 397.463 37.0933 395.517C40.4673 395.259 45.1275 395.097 49.9289 394.929" stroke="#BDB7E9" stroke-width="5"/>
<path d="M48.096 398.537C46.0411 397.712 35.792 392.211 25.2543 384.768C14.019 376.833 10.9053 365.182 9.2838 353.262C7.77731 342.188 10.284 333.508 12.6927 330.294C15.1514 327.013 19.1545 324.152 23.9065 321.341C36.3958 313.954 54.358 320.447 61.6333 325.158C63.4956 326.364 65.0776 328.087 66.3773 328.035C74.6872 327.706 78.3647 306.494 86.2248 296.731C91.9033 289.678 107.467 286.408 129.142 285.243C138.277 284.752 143.628 296.028 147.752 303.294C149.7 306.726 151.812 311.572 154.68 316.284C155.92 318.322 157.84 318.852 159.762 318.694C173.68 317.546 204.193 301.864 228.049 298.27C256.528 293.979 267.404 301.761 275.273 306.874C283.135 311.982 287.875 323.911 291.473 337.973C292.523 342.078 291.959 346.887 291.567 350.084C291.174 353.281 290.388 354.826 296.799 355.689C332.634 360.513 340.448 358.547 362.649 368.303C377.162 374.681 383.887 383.573 386.181 386.998C391.137 394.397 390.692 410.217 388.111 421.748C386.649 428.282 381.318 432.065 378.103 434.372C370.046 440.156 355.427 439.556 344.219 440.966C332.578 442.43 334.399 458.527 325.48 476.25C317.333 492.44 310.222 496.243 303.633 501.143C286.513 513.875 260.358 506.068 253.553 503.523C238.224 497.792 210.294 485.394 201.195 479.568C187.278 470.657 166.824 448.658 159.818 438.872C158.667 437.265 156.158 438.137 153.978 439.355C144.114 444.866 137.242 454.852 127.611 462.257C105.89 478.958 92.6901 483.259 80.1969 484.841C53.5912 488.211 43.1719 481.807 29.0122 475.453C18.1183 470.565 7.50135 460.357 3.18503 453.389C-3.7969 442.117 2.14282 423.015 7.25196 416.214C16.8409 406.411 27.6736 397.463 37.0933 395.517C40.4673 395.259 45.1275 395.097 49.9289 394.929" stroke="url(#paint2_linear_287_7286)" stroke-width="5"/>
<path d="M1439.44 357.845C1423.3 357.588 1387.48 356.041 1379.01 352.082C1376.56 350.935 1374.23 348.559 1377.6 340.573C1387.43 317.261 1403.88 304.384 1410.94 305.061C1422.28 306.149 1427.3 329.948 1429.62 342.308C1430.68 347.937 1429.52 352.867 1428.73 355.935C1425.91 366.805 1386.77 369.613 1368.6 368.58C1356.64 367.9 1352.39 360.253 1348.42 353.704C1343.32 345.282 1344.35 316.185 1347.11 298.396C1347.42 296.414 1349.8 295.829 1351.59 295.736C1359.12 295.348 1371 316.525 1389.67 337.059C1413.54 363.307 1437.07 376.615 1443.11 381.012C1461.7 394.552 1481.46 404.505 1497.67 408.798C1506.78 411.212 1513.86 408.848 1517.6 406.964C1529.27 401.079 1534.84 381.577 1540.05 355.614C1542.89 341.469 1539.69 331.754 1537.46 327.943C1531.57 317.839 1515.53 309.285 1507.12 306.044C1503.63 304.695 1497.55 305.202 1490.65 305.84C1485.26 306.337 1482.35 310.42 1479.96 314.049C1478.53 316.221 1477.35 319.482 1475.02 335.372C1472.69 351.262 1469.43 379.789 1466.92 397.401C1463.55 420.975 1458.17 432.578 1452.21 443.066C1446.99 452.242 1437.88 457.569 1429.44 461.751C1422.61 465.136 1409.93 466.203 1394.11 466.122C1383.83 466.069 1376.12 460.165 1363.67 448.793C1341.55 428.6 1329.64 411.204 1329.88 407.51C1330.1 403.933 1352.88 404.289 1392.07 406.077C1413.3 407.045 1436.94 412.71 1456.58 417.164C1509.68 429.208 1517.13 433.909 1520.66 433.154C1524.68 432.297 1522.83 411.132 1521.01 379.789C1520.09 363.986 1515.55 348.709 1509.67 331.901C1503.78 315.094 1495.75 297.301 1487.96 281.956C1464.79 236.378 1454.11 228.456 1448.66 226.218C1445.67 224.994 1441.65 225.457 1438.75 226.35C1429.29 229.273 1422.74 248.258 1414.81 287.374C1412.25 300.02 1414.29 315.739 1415.36 326.593C1416.43 337.446 1418.22 343.192 1428.06 368.951C1437.89 394.71 1455.71 440.306 1465.36 465.84C1478.67 501.063 1477.64 509.669 1476.32 516.627C1473.07 533.814 1435.16 521.915 1416.08 514.725C1401.34 509.174 1377.39 497.144 1362.01 489.335C1346.62 481.526 1340.79 477.634 1330.93 468.981C1321.07 460.328 1307.37 447.033 1295.23 432.096C1271.1 402.392 1260.69 379.72 1257.71 371.404C1255.46 365.145 1255.41 352.978 1256.01 338.161C1256.32 330.669 1260.49 327.703 1264.66 324.395C1276.33 315.123 1287.77 315.113 1340.13 317.992C1366.29 319.431 1381.45 332.85 1394.02 340.869C1401.71 345.78 1411.46 353.347 1426.63 366.67C1441.79 379.992 1461.92 399.085 1475.21 410.822C1500.88 433.493 1519.38 435.863 1541 437.145C1549.67 437.659 1557.6 422.164 1567.46 398.645C1571.23 389.641 1571.16 374.982 1569.95 358.819C1567.37 324.556 1557.21 300.83 1550.82 290.532C1541.79 275.955 1530.99 274.085 1520.91 272.131C1510.33 270.081 1499.65 274.084 1489.42 282.656C1471.89 297.349 1456.07 322.266 1442.52 340.969C1436.41 348.826 1432.42 352.003 1427.23 355.232C1424.86 356.444 1423.02 356.79 1420.71 357.147" stroke="#BDB7E9" stroke-width="6"/>
<path d="M1439.44 357.845C1423.3 357.588 1387.48 356.041 1379.01 352.082C1376.56 350.935 1374.23 348.559 1377.6 340.573C1387.43 317.261 1403.88 304.384 1410.94 305.061C1422.28 306.149 1427.3 329.948 1429.62 342.308C1430.68 347.937 1429.52 352.867 1428.73 355.935C1425.91 366.805 1386.77 369.613 1368.6 368.58C1356.64 367.9 1352.39 360.253 1348.42 353.704C1343.32 345.282 1344.35 316.185 1347.11 298.396C1347.42 296.414 1349.8 295.829 1351.59 295.736C1359.12 295.348 1371 316.525 1389.67 337.059C1413.54 363.307 1437.07 376.615 1443.11 381.012C1461.7 394.552 1481.46 404.505 1497.67 408.798C1506.78 411.212 1513.86 408.848 1517.6 406.964C1529.27 401.079 1534.84 381.577 1540.05 355.614C1542.89 341.469 1539.69 331.754 1537.46 327.943C1531.57 317.839 1515.53 309.285 1507.12 306.044C1503.63 304.695 1497.55 305.202 1490.65 305.84C1485.26 306.337 1482.35 310.42 1479.96 314.049C1478.53 316.221 1477.35 319.482 1475.02 335.372C1472.69 351.262 1469.43 379.789 1466.92 397.401C1463.55 420.975 1458.17 432.578 1452.21 443.066C1446.99 452.242 1437.88 457.569 1429.44 461.751C1422.61 465.136 1409.93 466.203 1394.11 466.122C1383.83 466.069 1376.12 460.165 1363.67 448.793C1341.55 428.6 1329.64 411.204 1329.88 407.51C1330.1 403.933 1352.88 404.289 1392.07 406.077C1413.3 407.045 1436.94 412.71 1456.58 417.164C1509.68 429.208 1517.13 433.909 1520.66 433.154C1524.68 432.297 1522.83 411.132 1521.01 379.789C1520.09 363.986 1515.55 348.709 1509.67 331.901C1503.78 315.094 1495.75 297.301 1487.96 281.956C1464.79 236.378 1454.11 228.456 1448.66 226.218C1445.67 224.994 1441.65 225.457 1438.75 226.35C1429.29 229.273 1422.74 248.258 1414.81 287.374C1412.25 300.02 1414.29 315.739 1415.36 326.593C1416.43 337.446 1418.22 343.192 1428.06 368.951C1437.89 394.71 1455.71 440.306 1465.36 465.84C1478.67 501.063 1477.64 509.669 1476.32 516.627C1473.07 533.814 1435.16 521.915 1416.08 514.725C1401.34 509.174 1377.39 497.144 1362.01 489.335C1346.62 481.526 1340.79 477.634 1330.93 468.981C1321.07 460.328 1307.37 447.033 1295.23 432.096C1271.1 402.392 1260.69 379.72 1257.71 371.404C1255.46 365.145 1255.41 352.978 1256.01 338.161C1256.32 330.669 1260.49 327.703 1264.66 324.395C1276.33 315.123 1287.77 315.113 1340.13 317.992C1366.29 319.431 1381.45 332.85 1394.02 340.869C1401.71 345.78 1411.46 353.347 1426.63 366.67C1441.79 379.992 1461.92 399.085 1475.21 410.822C1500.88 433.493 1519.38 435.863 1541 437.145C1549.67 437.659 1557.6 422.164 1567.46 398.645C1571.23 389.641 1571.16 374.982 1569.95 358.819C1567.37 324.556 1557.21 300.83 1550.82 290.532C1541.79 275.955 1530.99 274.085 1520.91 272.131C1510.33 270.081 1499.65 274.084 1489.42 282.656C1471.89 297.349 1456.07 322.266 1442.52 340.969C1436.41 348.826 1432.42 352.003 1427.23 355.232C1424.86 356.444 1423.02 356.79 1420.71 357.147" stroke="url(#paint3_linear_287_7286)" stroke-width="6"/>
<path d="M807.219 348.405C807.219 348.912 807.219 354.896 807.995 363.96C808.287 367.378 810.322 368.085 812.061 368.489C813.801 368.893 815.681 368.893 817.291 368.239C823.885 365.559 824.012 357.253 824.257 353.372C824.376 351.491 823.099 349.832 821.843 348.51C820.588 347.188 819.038 346.264 817.092 345.788C815.146 345.312 812.849 345.312 810.866 346.216C806.778 348.078 804.68 354.107 803.236 361.372C801.593 369.64 803.64 375.903 805.648 378.841C809.712 384.786 818.925 386.037 835.177 386.051C841.405 386.056 844.941 381.587 847.504 378.256C852.713 371.483 852.239 353.486 849.194 342.118C846.77 333.069 832.522 331.122 824.236 330.021C809.826 328.106 789.427 330.375 775.92 340.206C761.65 350.593 762.446 366.43 762.182 391.079C762.101 398.64 766.943 404.328 772.724 410.875C778.587 417.515 787.086 421.721 799.504 425.745C840.286 438.962 866.18 431.26 877.935 425.144C888.119 419.846 892.698 409.5 896.816 398.473C903.526 380.506 893.32 348.054 883.114 327.357C873.574 308.01 854.009 296.688 839.141 288.259C812.432 273.116 773.616 283.947 762.385 288.461C749.369 293.693 739.615 301.51 732.661 308.009C721.62 318.324 712.322 333.272 704.872 347.874C691.733 373.629 694.997 401.437 696.665 414.972C698.023 425.986 713.703 440.712 728.86 457.018C736.687 465.438 747.15 471.114 758.953 476.882C773.612 484.046 791.143 488.065 811.311 491.329C837.65 495.593 868.091 489.762 892.783 482.679C907.3 478.515 913.593 474.094 920.903 467.83C935.334 455.463 949.881 432.402 960.869 411.418C970.261 393.48 968.213 359.798 966.483 343.974C965.417 334.224 953.187 320.684 935.717 301.633C928.279 293.523 916.875 285.008 897.712 273.282C870.667 256.734 845.208 250.989 822.258 247.877C779.876 242.13 748.782 245.721 741.028 247.944C736.957 249.112 732.763 250.866 718.675 258.817C704.587 266.767 680.771 280.99 666.266 290.274C646.798 302.735 634.368 319.125 621.242 337.918C615.373 347.471 611.662 354.985 607.134 363.753C605.227 367.456 604.111 369.645 602.961 371.901" stroke="#BDB7E9" stroke-width="6"/>
<path d="M807.219 348.405C807.219 348.912 807.219 354.896 807.995 363.96C808.287 367.378 810.322 368.085 812.061 368.489C813.801 368.893 815.681 368.893 817.291 368.239C823.885 365.559 824.012 357.253 824.257 353.372C824.376 351.491 823.099 349.832 821.843 348.51C820.588 347.188 819.038 346.264 817.092 345.788C815.146 345.312 812.849 345.312 810.866 346.216C806.778 348.078 804.68 354.107 803.236 361.372C801.593 369.64 803.64 375.903 805.648 378.841C809.712 384.786 818.925 386.037 835.177 386.051C841.405 386.056 844.941 381.587 847.504 378.256C852.713 371.483 852.239 353.486 849.194 342.118C846.77 333.069 832.522 331.122 824.236 330.021C809.826 328.106 789.427 330.375 775.92 340.206C761.65 350.593 762.446 366.43 762.182 391.079C762.101 398.64 766.943 404.328 772.724 410.875C778.587 417.515 787.086 421.721 799.504 425.745C840.286 438.962 866.18 431.26 877.935 425.144C888.119 419.846 892.698 409.5 896.816 398.473C903.526 380.506 893.32 348.054 883.114 327.357C873.574 308.01 854.009 296.688 839.141 288.259C812.432 273.116 773.616 283.947 762.385 288.461C749.369 293.693 739.615 301.51 732.661 308.009C721.62 318.324 712.322 333.272 704.872 347.874C691.733 373.629 694.997 401.437 696.665 414.972C698.023 425.986 713.703 440.712 728.86 457.018C736.687 465.438 747.15 471.114 758.953 476.882C773.612 484.046 791.143 488.065 811.311 491.329C837.65 495.593 868.091 489.762 892.783 482.679C907.3 478.515 913.593 474.094 920.903 467.83C935.334 455.463 949.881 432.402 960.869 411.418C970.261 393.48 968.213 359.798 966.483 343.974C965.417 334.224 953.187 320.684 935.717 301.633C928.279 293.523 916.875 285.008 897.712 273.282C870.667 256.734 845.208 250.989 822.258 247.877C779.876 242.13 748.782 245.721 741.028 247.944C736.957 249.112 732.763 250.866 718.675 258.817C704.587 266.767 680.771 280.99 666.266 290.274C646.798 302.735 634.368 319.125 621.242 337.918C615.373 347.471 611.662 354.985 607.134 363.753C605.227 367.456 604.111 369.645 602.961 371.901" stroke="url(#paint4_linear_287_7286)" stroke-width="6"/>
<path d="M21.2188 515.669C21.2188 514.973 29.4535 512.676 43.6063 509.739C52.7352 507.844 61.0251 511.287 69.7332 515.644C73.6695 517.613 76.9325 518.447 83.9312 519.128C90.9299 519.809 101.644 520.148 110.669 519.37C135.385 517.239 140.019 511.785 145.513 508.086C150.176 503.162 155.021 497.691 159.075 494.383C159.851 493.926 160.598 493.54 161.581 492.94" stroke="#BDB7E9" stroke-width="3" stroke-linecap="round"/>
<path d="M21.2188 515.669C21.2188 514.973 29.4535 512.676 43.6063 509.739C52.7352 507.844 61.0251 511.287 69.7332 515.644C73.6695 517.613 76.9325 518.447 83.9312 519.128C90.9299 519.809 101.644 520.148 110.669 519.37C135.385 517.239 140.019 511.785 145.513 508.086C150.176 503.162 155.021 497.691 159.075 494.383C159.851 493.926 160.598 493.54 161.581 492.94" stroke="url(#paint5_linear_287_7286)" stroke-width="3" stroke-linecap="round"/>
<path d="M177.875 291.388C180.763 290.363 187.293 288.382 194.343 285.514C199.094 283.581 204.476 281.165 211.525 279.239C214.483 278.431 216.798 277.386 223.188 275.548C237.695 271.374 252.049 267.444 260.136 266.414C266.818 265.563 283.109 265.267 296.016 267.726C303.747 269.198 307.884 277.609 313.617 285.927C316.588 290.238 321.23 299.806 325.563 310.184C329.528 319.681 333.527 323.335 346.879 334.867C353.368 339.54 357.714 340.752 362.722 341.521C365.028 341.783 366.853 341.783 368.735 341.783" stroke="#BDB7E9" stroke-width="3" stroke-linecap="round"/>
<path d="M177.875 291.388C180.763 290.363 187.293 288.382 194.343 285.514C199.094 283.581 204.476 281.165 211.525 279.239C214.483 278.431 216.798 277.386 223.188 275.548C237.695 271.374 252.049 267.444 260.136 266.414C266.818 265.563 283.109 265.267 296.016 267.726C303.747 269.198 307.884 277.609 313.617 285.927C316.588 290.238 321.23 299.806 325.563 310.184C329.528 319.681 333.527 323.335 346.879 334.867C353.368 339.54 357.714 340.752 362.722 341.521C365.028 341.783 366.853 341.783 368.735 341.783" stroke="url(#paint6_linear_287_7286)" stroke-width="3" stroke-linecap="round"/>
<path d="M18.5 539.539C19.7632 537.781 24.5318 533.721 28.2419 532.047C32.7556 530.117 40.9202 529.534 51.0428 529.941C55.2927 530.348 57.7422 531.162 61.1171 532.001" stroke="#BDB7E9" stroke-width="3" stroke-linecap="round"/>
<path d="M18.5 539.539C19.7632 537.781 24.5318 533.721 28.2419 532.047C32.7556 530.117 40.9202 529.534 51.0428 529.941C55.2927 530.348 57.7422 531.162 61.1171 532.001" stroke="url(#paint7_linear_287_7286)" stroke-width="3" stroke-linecap="round"/>
<path d="M322.879 282.67C323.19 283.771 325.635 289.236 328.149 294.843C332.718 305.031 335.858 310.473 340.158 315.321C345.701 319.213 356.288 324.221 372.549 327.598C376.581 328.161 379.636 328.335 382.784 328.514" stroke="#BDB7E9" stroke-width="3" stroke-linecap="round"/>
<path d="M322.879 282.67C323.19 283.771 325.635 289.236 328.149 294.843C332.718 305.031 335.858 310.473 340.158 315.321C345.701 319.213 356.288 324.221 372.549 327.598C376.581 328.161 379.636 328.335 382.784 328.514" stroke="url(#paint8_linear_287_7286)" stroke-width="3" stroke-linecap="round"/>
</g>
<defs>
<linearGradient id="paint0_linear_287_7286" x1="1282.88" y1="569.578" x2="1678.65" y2="258.566" gradientUnits="userSpaceOnUse">
<stop offset="0.0384615" stop-color="#410D6E"/>
<stop offset="0.514423" stop-color="#6825A2"/>
<stop offset="0.850962" stop-color="#8552B2"/>
</linearGradient>
<linearGradient id="paint1_linear_287_7286" x1="697.517" y1="581.499" x2="1079.26" y2="323.028" gradientUnits="userSpaceOnUse">
<stop offset="0.0384615" stop-color="#410D6E"/>
<stop offset="0.514423" stop-color="#6825A2"/>
<stop offset="0.850962" stop-color="#8552B2"/>
</linearGradient>
<linearGradient id="paint2_linear_287_7286" x1="45.1182" y1="542.125" x2="332.708" y2="213.104" gradientUnits="userSpaceOnUse">
<stop offset="0.0384615" stop-color="#410D6E"/>
<stop offset="0.514423" stop-color="#6825A2"/>
<stop offset="0.850962" stop-color="#8552B2"/>
</linearGradient>
<linearGradient id="paint3_linear_287_7286" x1="1292.13" y1="571.076" x2="1656.52" y2="320.781" gradientUnits="userSpaceOnUse">
<stop offset="0.0384615" stop-color="#410D6E"/>
<stop offset="0.514423" stop-color="#6825A2"/>
<stop offset="0.850962" stop-color="#8552B2"/>
</linearGradient>
<linearGradient id="paint4_linear_287_7286" x1="645.187" y1="530.475" x2="967.687" y2="219.975" gradientUnits="userSpaceOnUse">
<stop offset="0.0384615" stop-color="#410D6E"/>
<stop offset="0.514423" stop-color="#6825A2"/>
<stop offset="0.850962" stop-color="#8552B2"/>
</linearGradient>
<linearGradient id="paint5_linear_287_7286" x1="37.4569" y1="523.902" x2="56.3163" y2="459.472" gradientUnits="userSpaceOnUse">
<stop offset="0.0384615" stop-color="#410D6E"/>
<stop offset="0.514423" stop-color="#6825A2"/>
<stop offset="0.850962" stop-color="#8552B2"/>
</linearGradient>
<linearGradient id="paint6_linear_287_7286" x1="199.955" y1="353.333" x2="287.781" y2="209.02" gradientUnits="userSpaceOnUse">
<stop offset="0.0384615" stop-color="#410D6E"/>
<stop offset="0.514423" stop-color="#6825A2"/>
<stop offset="0.850962" stop-color="#8552B2"/>
</linearGradient>
<linearGradient id="paint7_linear_287_7286" x1="23.4303" y1="541.017" x2="31.2958" y2="518.459" gradientUnits="userSpaceOnUse">
<stop offset="0.0384615" stop-color="#410D6E"/>
<stop offset="0.514423" stop-color="#6825A2"/>
<stop offset="0.850962" stop-color="#8552B2"/>
</linearGradient>
<linearGradient id="paint8_linear_287_7286" x1="329.809" y1="335.482" x2="388.741" y2="285.106" gradientUnits="userSpaceOnUse">
<stop offset="0.0384615" stop-color="#410D6E"/>
<stop offset="0.514423" stop-color="#6825A2"/>
<stop offset="0.850962" stop-color="#8552B2"/>
</linearGradient>
<clipPath id="clip0_287_7286">
<rect width="1920" height="1080" fill="white"/>
</clipPath>
</defs>
</svg>
